<svg width="36" height="36" viewBox="0 0 36 36" fill="none" xmlns="http://www.w3.org/2000/svg"><g clip-path="url(#clip0)" fill="#9B9B9B"><path d="M26.072 35.147a2.91 2.91 0 01-.744-.096l-22.55-6.04A2.943 2.943 0 01.716 25.44l2.845-10.605a.73.73 0 011.409.376L2.126 25.812a1.48 1.48 0 001.036 1.792l22.541 6.036a1.452 1.452 0 001.775-1.026l1.139-4.22a.728.728 0 01.894-.515.73.73 0 01.515.893l-1.138 4.215a2.913 2.913 0 01-2.816 2.16z"/><path d="M32.703 26.397H9.37a2.92 2.92 0 01-2.917-2.917V5.98A2.92 2.92 0 019.37 3.064h23.333A2.92 2.92 0 0135.62 5.98v17.5a2.92 2.92 0 01-2.917 2.917zM9.37 4.522A1.46 1.46 0 007.91 5.98v17.5a1.46 1.46 0 001.46 1.46h23.333a1.46 1.46 0 001.458-1.459V5.98a1.46 1.46 0 00-1.458-1.458H9.37z"/><path d="M13.745 13.272a2.92 2.92 0 01-2.917-2.917 2.92 2.92 0 012.917-2.916 2.92 2.92 0 012.917 2.916 2.92 2.92 0 01-2.917 2.917zm0-4.375a1.46 1.46 0 00-1.458 1.458 1.46 1.46 0 001.458 1.459 1.46 1.46 0 001.458-1.459 1.46 1.46 0 00-1.458-1.458zm-6.46 15.94a.73.73 0 01-.516-1.244l6.887-6.888c.826-.825 2.268-.825 3.093 0l2.05 2.05 5.677-6.81a2.19 2.19 0 011.665-.787h.016c.639 0 1.244.277 1.661.762l7.627 8.899a.728.728 0 11-1.107.95l-7.627-8.9a.721.721 0 00-.554-.253c-.152-.013-.419.092-.56.262l-6.188 7.425a.726.726 0 01-.528.26.702.702 0 01-.548-.212l-2.615-2.615a.749.749 0 00-1.03 0l-6.889 6.888a.726.726 0 01-.514.213z"/></g><defs><clipPath id="clip0"><path fill="#fff" transform="translate(.62 .147)" d="M0 0h35v35H0z"/></clipPath></defs></svg>