<svg width="24" height="24" viewBox="0 0 24 24" xmlns="http://www.w3.org/2000/svg"><g clip-path="url(#clip0)"><path d="M23.413 8.742a1.593 1.593 0 00-1.08-.44h.066v-2.27a3.35 3.35 0 00-.991-2.38 3.347 3.347 0 00-2.38-.99H4.225c-.925 0-1.762.374-2.38.99a3.347 3.347 0 00-.99 2.38v11.39c0 .925.374 1.762.99 2.38a3.347 3.347 0 002.38.99H19.03a3.35 3.35 0 002.379-.99 3.347 3.347 0 00.991-2.38V15.13h-.066a1.6 1.6 0 001.08-.44c.264-.265.44-.662.44-1.08V9.82c0-.418-.176-.793-.44-1.08zM21.188 17.4a2.13 2.13 0 01-.64 1.52 2.132 2.132 0 01-1.52.639H4.225a2.131 2.131 0 01-1.52-.639 2.131 2.131 0 01-.639-1.52V6.032c0-.595.242-1.123.639-1.52a2.131 2.131 0 011.52-.639H19.03c.594 0 1.123.242 1.52.639.396.397.639.925.639 1.52v2.27h-6.83c-.925 0-1.74.374-2.357.969a3.33 3.33 0 00-.97 2.357v.154c0 .925.375 1.74.97 2.357a3.33 3.33 0 002.357.97h6.83v2.29zm1.454-3.79a.337.337 0 01-.088.22.283.283 0 01-.22.089h-7.976a2.153 2.153 0 01-1.498-.617 2.153 2.153 0 01-.617-1.498v-.154c0-.595.242-1.124.617-1.498a2.098 2.098 0 011.498-.617h7.975c.088 0 .176.044.22.088a.283.283 0 01.089.22v3.768z"/><path d="M14.512 10.725a.966.966 0 00-.683.286.966.966 0 00-.286.683c0 .264.11.507.286.683a.967.967 0 00.683.286c.265 0 .507-.11.705-.286a.98.98 0 00.287-.705c0-.264-.11-.507-.287-.705-.198-.132-.44-.242-.705-.242z"/></g><defs><clipPath id="clip0"><path transform="translate(.853 .227)" d="M0 0h23v23H0z"/></clipPath></defs></svg>