<svg width="20" height="20" viewBox="0 0 20 20" fill="none" xmlns="http://www.w3.org/2000/svg"><path d="M18.925 0H1.094a.838.838 0 00-.747.455.85.85 0 00.066.884l6.533 9.202.007.01c.237.32.365.708.366 1.107v7.502a.834.834 0 001.163.774l3.67-1.4c.33-.1.548-.41.548-.784v-6.092c0-.399.13-.787.367-1.107l.006-.01 6.532-9.203a.849.849 0 00.067-.883.838.838 0 00-.747-.455zm-6.677 9.95a2.89 2.89 0 00-.563 1.708v5.969l-3.35 1.277v-7.246a2.889 2.889 0 00-.564-1.709L1.429 1.015H18.59L12.248 9.95z" fill="#000"/></svg>