<svg width="16" height="16" viewBox="0 0 16 16" fill="none" xmlns="http://www.w3.org/2000/svg">
<path d="M7.99992 5.66675C9.28625 5.66675 10.3333 6.71341 10.3333 8.00008C10.3333 9.28675 9.28625 10.3334 7.99992 10.3334C6.71359 10.3334 5.66659 9.28675 5.66659 8.00008C5.66659 6.71341 6.71359 5.66675 7.99992 5.66675ZM7.99992 9.00008C8.55125 9.00008 8.99992 8.55141 8.99992 8.00008C8.99992 7.44875 8.55125 7.00008 7.99992 7.00008C7.44859 7.00008 6.99992 7.44875 6.99992 8.00008C6.99992 8.55141 7.44859 9.00008 7.99992 9.00008Z" fill="#E2243C"/>
<path d="M0.666666 7.33333H2.03933C2.348 4.557 4.557 2.348 7.33333 2.03933V0.666667C7.33333 0.298667 7.632 0 8 0C8.368 0 8.66667 0.298667 8.66667 0.666667V2.03933C11.443 2.348 13.652 4.557 13.9607 7.33333H15.3333C15.7013 7.33333 16 7.632 16 8C16 8.368 15.7013 8.66667 15.3333 8.66667H13.9607C13.652 11.443 11.443 13.652 8.66667 13.9607V15.3333C8.66667 15.7013 8.368 16 8 16C7.632 16 7.33333 15.7013 7.33333 15.3333V13.9607C4.557 13.652 2.348 11.443 2.03933 8.66667H0.666666C0.298666 8.66667 0 8.368 0 8C0 7.632 0.298666 7.33333 0.666666 7.33333ZM8 12.6667C10.5733 12.6667 12.6667 10.5733 12.6667 8C12.6667 5.42667 10.5733 3.33333 8 3.33333C5.42667 3.33333 3.33333 5.42667 3.33333 8C3.33333 10.5733 5.42667 12.6667 8 12.6667Z" fill="#E2243C"/>
</svg>
