<svg width="22" height="22" viewBox="0 0 22 22" fill="none" xmlns="http://www.w3.org/2000/svg">
<path d="M11 1C5.47297 1 1 5.47254 1 11C1 16.5271 5.47254 21 11 21C16.527 21 21 16.5275 21 11C21 5.47293 16.5275 1 11 1ZM11 19.4375C6.33656 19.4375 2.5625 15.6638 2.5625 11C2.5625 6.33652 6.33621 2.5625 11 2.5625C15.6634 2.5625 19.4375 6.33621 19.4375 11C19.4375 15.6635 15.6638 19.4375 11 19.4375Z" fill="#E2243C"/>
<path d="M14.4209 13.3166L12.1044 11.0001L14.4209 8.6836C14.726 8.37853 14.726 7.88388 14.421 7.57876C14.1158 7.27364 13.6212 7.27368 13.3161 7.57876L10.9996 9.89524L8.68308 7.57876C8.37804 7.27364 7.88331 7.27364 7.57824 7.57876C7.27316 7.88388 7.27316 8.37853 7.57828 8.6836L9.89476 11.0001L7.57828 13.3166C7.27316 13.6217 7.27312 14.1163 7.57824 14.4214C7.88343 14.7266 8.37808 14.7265 8.68308 14.4214L10.9996 12.1049L13.3161 14.4214C13.6211 14.7265 14.1158 14.7265 14.421 14.4214C14.7261 14.1163 14.726 13.6217 14.4209 13.3166Z" fill="#E2243C"/>
</svg>
