<svg width="12" height="16" viewBox="0 0 12 16" fill="none" xmlns="http://www.w3.org/2000/svg"><path d="M6.04 15.412c-.301 0-.588-.095-.828-.276A12.863 12.863 0 01.272 7.57a.44.44 0 01-.01-.062A5.901 5.901 0 016.035.412a5.902 5.902 0 015.758 7.167.415.415 0 01-.01.06 12.886 12.886 0 01-4.835 7.432l-.182.133a1.382 1.382 0 01-.725.208zm-4.895-7.98a11.985 11.985 0 004.594 6.996.501.501 0 00.53.047l.152-.112a12 12 0 004.49-6.863.43.43 0 01.009-.06 5.019 5.019 0 00-4.885-6.145A5.018 5.018 0 001.137 7.38a.453.453 0 01.008.053z" fill="#E2243C"/><path d="M6.035 8.83a2.525 2.525 0 01-2.523-2.523 2.526 2.526 0 012.523-2.523A2.526 2.526 0 018.56 6.307 2.526 2.526 0 016.035 8.83zm0-4.164c-.904 0-1.64.736-1.64 1.641 0 .904.736 1.64 1.64 1.64.905 0 1.641-.736 1.641-1.64 0-.905-.736-1.64-1.64-1.64z" fill="#E2243C"/></svg>