<svg width="53" height="58" viewBox="0 0 53 58" fill="none" xmlns="http://www.w3.org/2000/svg"><g filter="url(#filter0_d)" fill="#00AF27"><path d="M48.47 22.235c0 12.28-9.955 22.235-22.235 22.235S4 34.515 4 22.235 13.955 0 26.235 0 48.47 9.955 48.47 22.235z"/><path d="M19.946 43.58l6.289-6.289 6.289 6.29-6.29 6.288-6.288-6.289z"/></g><g clip-path="url(#clip0)" fill="#fff"><path d="M31.152 36a.734.734 0 01-.437-.144l-3.82-2.821a11.11 11.11 0 01-9.224-3.15c-4.314-4.315-4.314-11.335 0-15.65 4.314-4.313 11.334-4.314 15.649 0a11 11 0 012.923 10.46 11.11 11.11 0 01-.487 1.513l-1.722 4.098a.736.736 0 01-1.356-.57l1.718-4.088c.17-.42.313-.867.423-1.32l.005-.024a9.54 9.54 0 00-2.544-9.028c-3.742-3.741-9.829-3.74-13.57 0-3.74 3.74-3.74 9.828 0 13.569a9.634 9.634 0 008.268 2.693.73.73 0 01.55.135l3.309 2.444.727-1.73a.736.736 0 011.356.57l-1.09 2.592a.736.736 0 01-.678.451z"/><path d="M30.156 19.785h-8.859a.588.588 0 110-1.176h8.86a.588.588 0 010 1.176zm0 3.374h-8.859a.588.588 0 110-1.177h8.86a.588.588 0 010 1.177zm-3.795 3.373h-5.064a.588.588 0 110-1.177h5.064a.588.588 0 110 1.177z"/></g><defs><clipPath id="clip0"><path fill="#fff" transform="translate(13 11)" d="M0 0h25v25H0z"/></clipPath><filter id="filter0_d" x="0" y="0" width="52.47" height="57.869" filterUnits="userSpaceOnUse" color-interpolation-filters="sRGB"><feFlood flood-opacity="0" result="BackgroundImageFix"/><feColorMatrix in="SourceAlpha" values="0 0 0 0 0 0 0 0 0 0 0 0 0 0 0 0 0 0 127 0"/><feOffset dy="4"/><feGaussianBlur stdDeviation="2"/><feColorMatrix values="0 0 0 0 0 0 0 0 0 0 0 0 0 0 0 0 0 0 0.25 0"/><feBlend in2="BackgroundImageFix" result="effect1_dropShadow"/><feBlend in="SourceGraphic" in2="effect1_dropShadow" result="shape"/></filter></defs></svg>