<svg width="22" height="21" viewBox="0 0 22 21" xmlns="http://www.w3.org/2000/svg"><g clip-path="url(#clip0)"><path d="M19.153 0h-16.5C1.413 0 .403 1.01.403 2.25v16.5c0 1.24 1.01 2.25 2.25 2.25h16.5c1.241 0 2.25-1.01 2.25-2.25V2.25c0-1.24-1.009-2.25-2.25-2.25zm.75 18.75a.75.75 0 01-.75.75h-16.5a.75.75 0 01-.75-.75V2.25a.75.75 0 01.75-.75h16.5a.75.75 0 01.75.75v16.5z"/><path d="M11.653 4.5h-4.5a.75.75 0 00-.75.75V16.5h1.5V12h3.75a3.754 3.754 0 003.75-3.75 3.754 3.754 0 00-3.75-3.75zm0 6h-3.75V6h3.75c1.241 0 2.25 1.01 2.25 2.25s-1.009 2.25-2.25 2.25z"/></g><defs><clipPath id="clip0"><path transform="translate(.403)" d="M0 0h21v21H0z"/></clipPath></defs></svg>