<svg width="25" height="25" viewBox="0 0 25 25" xmlns="http://www.w3.org/2000/svg"><g clip-path="url(#clip0)"><path d="M2.973 16.537l-1.64.918a10.17 10.17 0 001.906 2.437l1.287-1.369a8.294 8.294 0 01-1.553-1.986zm2.891 3.01l-.985 1.6c.886.546 1.846.95 2.853 1.2l.454-1.823a8.21 8.21 0 01-2.322-.977zm5.529 1.138a8.37 8.37 0 01-1.178.084h-.024a8.44 8.44 0 01-.338-.007l-.075 1.878c.136.005.275.008.413.008h.024c.483 0 .969-.035 1.443-.102l-.265-1.86zm2.783-.925a8.414 8.414 0 01-1.15.519l.639 1.767c.484-.175.96-.39 1.413-.638l-.902-1.649zm2.287-1.845a8.337 8.337 0 01-.899.89l1.217 1.432a10.31 10.31 0 001.102-1.09l-1.42-1.232zm6.251-6.292L20.338 14v-1.5c0-2.71-1.055-5.259-2.972-7.176a10.081 10.081 0 00-7.175-2.972c-2.71 0-5.26 1.056-7.176 2.972A10.081 10.081 0 00.043 12.5c0 1.043.158 2.072.469 3.057l1.792-.565a8.267 8.267 0 01-.382-2.492c0-4.56 3.71-8.269 8.269-8.269s8.268 3.71 8.268 8.269v1.484L16.07 11.6l-1.327 1.33 4.668 4.656 4.633-4.634-1.329-1.329z"/></g><defs><clipPath id="clip0"><path transform="translate(.043 .5)" d="M0 0h24v24H0z"/></clipPath></defs></svg>