<svg width="177" height="115" viewBox="0 0 177 115" fill="none" xmlns="http://www.w3.org/2000/svg"><path fill="#F8F8F8" d="M0 0h177v115H0z"/><path d="M53.74 87.092h-1.119V85h-6.123v2.098h-1.125l-.006-3.018h.698c.367-.414.658-.969.873-1.664.218-.7.355-1.465.41-2.297l.187-3.65h5.104v7.611h1.113l-.012 3.012zm-6.392-3.012h4.16v-6.686h-2.889l-.123 2.508c-.05.98-.181 1.817-.393 2.508-.206.692-.459 1.248-.755 1.67zm7.283-2.308c0-.622.121-1.18.363-1.676a2.758 2.758 0 011.02-1.149 2.79 2.79 0 011.494-.404c.863 0 1.56.299 2.092.896.535.598.802 1.393.802 2.385v.076c0 .618-.119 1.172-.357 1.664a2.67 2.67 0 01-1.014 1.143c-.437.274-.941.41-1.511.41-.86 0-1.557-.299-2.092-.896-.531-.598-.797-1.389-.797-2.373v-.076zm1.09.128c0 .703.162 1.268.486 1.694.328.425.766.638 1.313.638.55 0 .988-.214 1.312-.644.324-.434.486-1.04.486-1.816 0-.696-.166-1.258-.498-1.688a1.564 1.564 0 00-1.312-.65c-.535 0-.967.213-1.295.638-.328.426-.492 1.035-.492 1.828zm8.824-2.877c.797 0 1.433.268 1.91.803.48.531.72 1.233.72 2.104v.1c0 .597-.114 1.132-.345 1.605a2.58 2.58 0 01-.996 1.096c-.43.257-.926.386-1.488.386-.852 0-1.537-.283-2.057-.85-.52-.57-.78-1.333-.78-2.29v-.528c0-1.332.247-2.39.739-3.176.496-.785 1.227-1.263 2.191-1.435.547-.098.917-.217 1.108-.357a.68.68 0 00.287-.58h.89c0 .488-.11.868-.333 1.142-.22.273-.57.467-1.055.58l-.809.182c-.644.152-1.129.41-1.453.773-.32.36-.53.84-.627 1.441.575-.663 1.274-.996 2.098-.996zm-.211.891c-.531 0-.953.18-1.266.54-.312.355-.468.849-.468 1.482v.093c0 .68.156 1.219.468 1.618.317.394.742.591 1.278.591.539 0 .965-.199 1.277-.597.313-.399.469-.98.469-1.747 0-.597-.158-1.076-.475-1.435-.312-.363-.74-.545-1.283-.545zM72.309 85c-.063-.125-.114-.348-.153-.668-.504.524-1.105.785-1.804.785-.625 0-1.14-.176-1.541-.527a1.728 1.728 0 01-.598-1.348c0-.66.25-1.172.75-1.535.504-.367 1.21-.55 2.121-.55h1.055v-.499c0-.379-.114-.68-.34-.902-.227-.227-.56-.34-1.002-.34-.387 0-.711.098-.973.293-.261.195-.392.432-.392.709h-1.09c0-.316.111-.621.334-.914a2.31 2.31 0 01.914-.703c.387-.172.81-.258 1.271-.258.73 0 1.303.184 1.717.55.414.364.629.866.645 1.507v2.918c0 .582.074 1.044.222 1.388V85H72.31zm-1.8-.826c.34 0 .663-.088.968-.264.304-.176.525-.404.662-.685v-1.301h-.85c-1.328 0-1.992.388-1.992 1.166 0 .34.113.605.34.797.226.191.517.287.873.287zm4.513.826v-6.34h2.472c.844 0 1.49.149 1.94.446.453.292.68.724.68 1.294 0 .293-.089.559-.264.797-.176.235-.436.414-.78.54.383.09.69.265.92.527.235.261.352.574.352.937 0 .582-.215 1.028-.645 1.336-.425.309-1.029.463-1.81.463h-2.865zm1.084-2.783v1.91h1.792c.454 0 .791-.084 1.014-.252.227-.168.34-.404.34-.709 0-.633-.465-.95-1.395-.95h-1.751zm0-.867h1.4c1.016 0 1.523-.297 1.523-.891 0-.594-.48-.9-1.441-.92h-1.482v1.81zm9.773-2.69h1.084V85h-1.084v-4.623L82.955 85h-1.084v-6.34h1.084v4.63l2.924-4.63zm7.535.88h-2.127V85h-1.084v-5.46h-2.086v-.88h5.297v.88zm2.238 1.306H97.3c.719.007 1.287.195 1.705.562.418.367.627.865.627 1.494 0 .633-.215 1.141-.645 1.524-.43.383-1.008.574-1.734.574h-2.684v-6.34h1.084v2.186zm0 .885v2.384h1.612c.406 0 .72-.103.943-.31.223-.211.334-.498.334-.862 0-.351-.11-.638-.328-.861-.215-.226-.518-.344-.908-.351h-1.653zm8.075.216c0-1.058.205-1.89.615-2.496.41-.605.972-.908 1.687-.908.332 0 .623.057.873.17V76h1.084v2.748c.274-.137.594-.205.961-.205.719 0 1.283.303 1.694.908.41.606.615 1.479.615 2.62 0 .933-.205 1.675-.615 2.226-.407.55-.967.826-1.682.826-.379 0-.703-.063-.973-.188v2.502h-1.084v-2.484c-.257.113-.552.17-.884.17-.711 0-1.272-.275-1.682-.826-.406-.55-.609-1.305-.609-2.262v-.088zm6.445 0c0-.797-.137-1.414-.41-1.851-.274-.442-.651-.662-1.131-.662-.246 0-.461.039-.645.117v4.588c.176.066.395.1.657.1.484 0 .859-.188 1.125-.563.269-.375.404-.951.404-1.729zm-5.361.123c0 .711.127 1.25.38 1.618.254.367.62.55 1.096.55.227 0 .432-.035.615-.105v-4.6a1.61 1.61 0 00-.603-.1c-.477 0-.844.213-1.102.64-.258.425-.386 1.091-.386 1.997zm7.57-.298c0-.622.121-1.18.363-1.676a2.755 2.755 0 011.02-1.149c.437-.27.935-.404 1.494-.404.863 0 1.56.299 2.092.896.535.598.802 1.393.802 2.385v.076c0 .618-.119 1.172-.357 1.664-.234.489-.572.87-1.014 1.143-.437.274-.941.41-1.511.41-.86 0-1.557-.299-2.092-.896-.532-.598-.797-1.389-.797-2.373v-.076zm1.09.128c0 .703.162 1.268.486 1.694.328.425.766.638 1.313.638.55 0 .988-.214 1.312-.644.324-.434.486-1.04.486-1.816 0-.696-.166-1.258-.498-1.688a1.563 1.563 0 00-1.312-.65c-.535 0-.967.213-1.295.638-.328.426-.492 1.035-.492 1.828zm10.623-2.36h-2.127V85h-1.084v-5.46h-2.086v-.88h5.297v.88zm.521 2.231c0-.62.121-1.18.364-1.675a2.753 2.753 0 011.019-1.149c.438-.27.936-.404 1.494-.404.863 0 1.561.299 2.092.896.535.598.803 1.393.803 2.385v.076c0 .618-.119 1.172-.358 1.664-.234.489-.572.87-1.013 1.143-.438.274-.942.41-1.512.41-.859 0-1.557-.299-2.092-.896-.531-.598-.797-1.389-.797-2.373v-.076zm1.09.13c0 .703.162 1.267.486 1.693.329.425.766.638 1.313.638.551 0 .988-.214 1.312-.644.325-.434.487-1.04.487-1.816 0-.696-.166-1.258-.498-1.688a1.564 1.564 0 00-1.313-.65c-.535 0-.967.213-1.295.638-.328.426-.492 1.035-.492 1.828z" fill="#838383"/><path d="M45.074 86.172h85.852v.586H45.074v-.586zm59.762-48.154a3.765 3.765 0 00-2.762-1.164h-5.523v-.067c0-.832-.332-1.63-.898-2.163a3.044 3.044 0 00-2.163-.898h-9.98c-.866 0-1.63.333-2.196.898a3.044 3.044 0 00-.899 2.163v.067h-5.49a3.763 3.763 0 00-2.76 1.164c-.7.699-1.165 1.697-1.165 2.761v16.569c0 1.098.433 2.063 1.164 2.761.7.699 1.697 1.165 2.762 1.165h27.148a3.765 3.765 0 002.762-1.165c.698-.698 1.164-1.697 1.164-2.761V40.779a3.766 3.766 0 00-1.164-2.761zm-.566 19.33h-.033c0 .599-.233 1.131-.632 1.53-.4.4-.932.632-1.531.632H74.926a2.136 2.136 0 01-1.53-.632 2.132 2.132 0 01-.633-1.53V40.779c0-.598.233-1.13.632-1.53.4-.4.932-.632 1.53-.632h6.422c.499 0 .898-.4.898-.898v-.965c0-.366.133-.699.366-.932.233-.233.566-.366.932-.366h9.947c.367 0 .7.133.932.366.233.233.366.566.366.932v.965c0 .499.4.898.898.898h6.421c.599 0 1.132.233 1.531.632.399.4.632.932.632 1.53v16.569z" fill="#838383"/><path d="M88.5 40.88a8.199 8.199 0 00-5.789 2.395 8.119 8.119 0 00-2.395 5.789c0 2.262.931 4.325 2.395 5.789a8.119 8.119 0 005.79 2.395 8.2 8.2 0 005.788-2.395 8.119 8.119 0 002.395-5.79 8.199 8.199 0 00-2.395-5.788 8.2 8.2 0 00-5.789-2.396zm4.525 12.742c-1.165 1.13-2.762 1.863-4.525 1.863-1.763 0-3.36-.732-4.525-1.863a6.36 6.36 0 01-1.863-4.525c0-1.763.732-3.36 1.863-4.525A6.36 6.36 0 0188.5 42.71c1.763 0 3.36.732 4.525 1.863a6.36 6.36 0 011.863 4.525c.033 1.763-.699 3.36-1.863 4.525zm7.319-9.516a1.63 1.63 0 100-3.26 1.63 1.63 0 000 3.26z" fill="#838383"/></svg>