<svg width="161" height="104" viewBox="0 0 161 104" fill="none" xmlns="http://www.w3.org/2000/svg"><path d="M73.166 36.122l-3.375-.007-.02 11.444-4.102-.007.02-11.443-3.375-.007-.02 11.444-4.12-.007.02-11.443-3.376-.007-.026 14.367 18.347.033.027-14.367zm2.219 14.492c.112 0 .237.007.39.013.151.007.323.014.515.014 1.221 0 2.146-.251 2.78-.766.634-.515 1.083-1.3 1.34-2.356.265-1.056.457-2.58.589-4.567.026-.244.06-.838.086-1.768.059-1.333.092-2.092.105-2.284l5.066.007-.02 11.608 3.54.007.026-14.36-11.822-.02c-.026.963-.053 1.755-.066 2.389a179.26 179.26 0 01-.171 4.421c-.086 1.307-.199 2.284-.344 2.93-.145.654-.37 1.122-.674 1.406-.303.29-.752.429-1.36.429h-.29l-.007 2.884h.132a.59.59 0 01.185.013zM96.15 47.73l6.663.014.872 2.798 3.771.006-4.94-14.373-5.99-.013-4.986 14.353 3.724.007.886-2.792zm1.968-6.15c.04-.139.086-.27.125-.39.377-1.24.7-2.342.971-3.313h.614c.073.251.139.509.218.773.139.488.278.99.429 1.51.331 1.11.509 1.723.555 1.836l1.004 3.167-5.066-.006 1.01-3.168c.047-.132.1-.27.14-.41zm14.642-2.376l7.338.013v-3.01l-10.872-.019-.026 14.367 3.54.006.02-11.357zM66.171 60.605c-1.037-.633-2.457-.95-4.273-.956h-.97c-.78 0-1.4-.04-1.843-.106-.45-.066-.786-.198-1.017-.396-.231-.191-.35-.482-.35-.864 0-.522.277-.924.825-1.215.548-.29 1.255-.429 2.12-.429.813 0 1.506.126 2.087.377.581.25.99.68 1.222 1.3l3.725.006c-.324-1.577-1.11-2.706-2.351-3.379-1.242-.673-2.8-1.016-4.683-1.016-1.096 0-2.133.158-3.11.475-.978.323-1.764.819-2.371 1.498-.608.68-.912 1.511-.912 2.501 0 1.096.264 1.947.8 2.554.534.607 1.221 1.017 2.066 1.228.846.218 1.836.323 2.972.323h1.176c.647 0 1.176.04 1.598.119.416.08.747.23.978.455.231.225.35.555.35.977 0 .62-.284 1.069-.845 1.346-.562.277-1.308.422-2.226.416-1.03 0-1.823-.145-2.391-.429-.561-.284-.925-.713-1.09-1.287l-3.91-.006c.324 1.63 1.117 2.81 2.365 3.543 1.248.733 2.88 1.096 4.9 1.102 1.262 0 2.398-.165 3.408-.495 1.01-.336 1.81-.857 2.404-1.577.595-.72.892-1.623.892-2.706.007-1.61-.509-2.725-1.546-3.358zm13.956-.884l-6.737-.013.013-5.576-3.526-.007-.027 14.367 3.527.006.007-5.8 6.736.006-.013 5.807 3.5.007.027-14.367-3.5-.006-.007 5.576zm10.223-5.556l-4.986 14.353 3.725.007.892-2.799 6.664.014.872 2.798 3.771.006-4.934-14.373-6.003-.006zm1.599 5.418c.04-.139.086-.271.126-.39.376-1.24.7-2.343.97-3.313h.615c.072.251.138.509.218.773.138.488.277.99.429 1.51.33 1.11.508 1.723.555 1.835l1.004 3.168-5.066-.007 1.01-3.167c.046-.139.093-.277.139-.41zm23.037 2.89c1.056-.706 1.591-1.867 1.591-3.484s-.449-2.818-1.354-3.604c-.904-.785-2.219-1.174-3.949-1.18l-8.216-.014-.027 14.36 3.521.007.006-5.042 3.316.006 2.992 5.049 3.976.006-3.296-5.424a5.69 5.69 0 001.44-.68zm-8.415-5.524l4.346.007c.753 0 1.295.172 1.618.515.324.343.482.845.482 1.504 0 .674-.178 1.175-.528 1.512-.35.336-.964.501-1.843.501l-4.075-.006v-4.033zm12.543 11.63l3.52.006.027-14.36-3.52-.006-.027 14.36zm17.072-1.671h-.475l-.41-1.604c-.092-.37-.244-.89-.449-1.564a838.344 838.344 0 00-.892-3.233c-.29-1.07-.581-2.145-.871-3.234l-.945-3.03-6.116-.012-.026 14.36 3.17.006.027-12.657h.475c.04.244.178.785.41 1.603.066.278.138.542.218.806.072.264.151.52.237.785.218.726.43 1.458.634 2.19.205.733.416 1.466.634 2.192.232.838.469 1.683.707 2.534.238.851.489 1.703.746 2.554l6.116.013.027-14.36-3.171-.007-.046 12.658zm22.244-5.22a6.01 6.01 0 00-.033-.363l-7.72-.013-.707 1.933 4.854.007c-.132.752-.469 1.34-1.01 1.768-.799.627-2.008.944-3.626.938-1.664 0-2.847-.377-3.56-1.129-.713-.746-1.07-1.848-1.063-3.306 0-1.465.363-2.587 1.076-3.366.714-.772 1.902-1.161 3.567-1.155.839 0 1.545.093 2.12.27.574.18 1.043.443 1.407.793.363.35.64.792.832 1.326l3.811.007c-.383-1.828-1.255-3.174-2.629-4.046-1.374-.87-3.216-1.313-5.535-1.32-2.721-.006-4.795.608-6.221 1.829-1.433 1.227-2.147 3.108-2.153 5.642-.007 2.54.7 4.408 2.12 5.61 1.42 1.2 3.494 1.808 6.228 1.814 1.895.007 3.441-.27 4.643-.811 1.202-.548 2.087-1.294 2.648-2.25.562-.951.879-2.093.932-3.426a1.13 1.13 0 00.019-.218v-.217a2.376 2.376 0 000-.317z" fill="#020303"/><path fill-rule="evenodd" clip-rule="evenodd" d="M34.308 8.265L32.04 6l-4.07 4.072C16.312 21.738 9.447 31.344 6.575 38.988c-1.425 3.794-1.823 6.993-1.434 9.67.385 2.642 1.556 4.925 3.541 6.908l.143.143c-.961-2.057-1.24-4.327-.926-6.728.478-3.65 2.312-7.564 4.957-11.635 5.014-7.717 13.486-16.803 23.585-26.955l-2.134-2.126zm1.727-1.728l-3.996-3.992-5.799 5.8C2.761 31.846-2.39 47.956 6.955 57.294c1.321 1.32 3.613 3.597 5.857 5.828 2.153 2.14 4.263 4.237 5.43 5.404l2.999-2.996a188.32 188.32 0 01-1.75-1.704c-2.068-2.03-5.172-5.107-6.552-6.486-8.691-8.684 4.454-24.333 25.234-45.225l1.725-1.73-3.863-3.847z" fill="url(#paint0_linear)"/><path d="M15.759 31.252v-5.63c-2.1 2.779-3.864 5.419-5.29 7.933v5.385c.422-.732.885-1.478 1.38-2.244a79.918 79.918 0 013.91-5.444zm-7.774 7.371c-.105.258-.204.515-.303.772-1.288 3.425-1.75 6.487-1.368 9.081.073.482.166.944.298 1.399.02-.35.06-.7.105-1.056.198-1.524.621-3.121 1.275-4.81v-5.386h-.007zM23.658 21.96v-5.715a138.446 138.446 0 00-5.29 6.058v5.695a177.018 177.018 0 014.16-4.797c.37-.403.747-.819 1.13-1.241zM32.02 7.686l-3.21 3.207c-.707.713-1.4 1.412-2.08 2.112v5.649a419.69 419.69 0 015.29-5.498v-5.47z" fill="#CE3A5B"/><path fill-rule="evenodd" clip-rule="evenodd" d="M9.177 95.774l2.268 2.267 4.07-4.072h.001C27.172 82.301 34.038 72.695 36.91 65.051c1.425-3.795 1.824-6.994 1.434-9.67-.384-2.642-1.556-4.925-3.54-6.908l-.143-.143c.96 2.057 1.24 4.326.925 6.727-.477 3.65-2.312 7.564-4.957 11.636-5.014 7.716-13.486 16.803-23.585 26.955l2.134 2.125zM7.45 97.502l3.996 3.993 5.799-5.801c23.48-23.5 28.63-39.609 19.285-48.947-1.321-1.32-3.612-3.598-5.856-5.828-2.154-2.14-4.263-4.237-5.43-5.404l-3 2.996c.336.319.97.936 1.751 1.704a1332.74 1332.74 0 016.552 6.486c8.69 8.684-4.455 24.333-25.235 45.224-.57.573-1.145 1.15-1.725 1.73l3.863 3.847z" fill="url(#paint1_linear)"/><path d="M27.726 72.788v5.63c2.1-2.78 3.864-5.419 5.29-7.933V65.1a51.824 51.824 0 01-1.38 2.243 79.849 79.849 0 01-3.91 5.445zm7.774-7.372c.105-.257.205-.514.304-.772 1.288-3.425 1.75-6.487 1.367-9.08a10.734 10.734 0 00-.297-1.4c-.02.35-.06.7-.106 1.056-.198 1.525-.62 3.122-1.275 4.811v5.385h.007zM19.827 82.08v5.715a138.459 138.459 0 005.29-6.058V76.04a177.204 177.204 0 01-4.16 4.798c-.37.403-.747.818-1.13 1.24zm-8.361 14.274l3.21-3.207c.706-.713 1.4-1.413 2.08-2.112v-5.65a419.74 419.74 0 01-5.29 5.498v5.47z" fill="#CE3A5B"/><defs><linearGradient id="paint0_linear" x1="21.222" y1="2.544" x2="21.222" y2="68.522" gradientUnits="userSpaceOnUse"><stop stop-color="#9E2429"/><stop offset=".885" stop-color="#CE3A58"/><stop offset="1" stop-color="#CE3A58"/></linearGradient><linearGradient id="paint1_linear" x1="22.264" y1="101.496" x2="22.264" y2="35.517" gradientUnits="userSpaceOnUse"><stop stop-color="#9E2429"/><stop offset=".885" stop-color="#CE3A58"/><stop offset="1" stop-color="#CE3A58"/></linearGradient></defs></svg>