<svg width="20" height="20" viewBox="0 0 20 20" fill="none" xmlns="http://www.w3.org/2000/svg">
<g clip-path="url(#clip0)">
<path d="M0.12207 9.70536L6.37207 3.45536C6.53484 3.29259 6.79852 3.29259 6.96125 3.45536C7.12402 3.61814 7.12402 3.88181 6.96125 4.04454L1.4225 9.58329H19.5833C19.8136 9.58329 20 9.76966 20 9.99997C20 10.2303 19.8136 10.4167 19.5833 10.4167H1.4225L6.96125 15.9554C7.12402 16.1181 7.12402 16.3818 6.96125 16.5445C6.87988 16.6259 6.77324 16.6666 6.66664 16.6666C6.56004 16.6666 6.45344 16.6259 6.37203 16.5445L0.12203 10.2945C-0.0407028 10.1318 -0.0407028 9.86813 0.12207 9.70536Z" fill="black"/>
</g>
<defs>
<clipPath id="clip0">
<rect width="20" height="20" fill="white" transform="matrix(-1 0 0 1 20 0)"/>
</clipPath>
</defs>
</svg>
