<svg width="16" height="12" viewBox="0 0 16 12" fill="none" xmlns="http://www.w3.org/2000/svg">
<path d="M15.3125 5.76155C14.0581 3.12071 11.2058 0.739532 7.86915 0.739532C4.1148 0.739532 1.41616 3.67643 0.425789 5.76155C0.350258 5.92062 0.350258 6.10533 0.425789 6.2644C1.68018 8.90524 4.53251 11.2864 7.86915 11.2864C11.6235 11.2864 14.3221 8.3494 15.3125 6.2644C15.388 6.10533 15.388 5.92062 15.3125 5.76155ZM7.86915 10.1145C5.16971 10.1145 2.93159 8.33556 1.61872 6.01298C2.9261 3.69989 5.16285 1.91141 7.86915 1.91141C10.5684 1.91141 12.8067 3.69017 14.1196 6.01298C12.8122 8.32594 10.5754 10.1145 7.86915 10.1145ZM7.86915 3.08328C6.2537 3.08328 4.93946 4.39753 4.93946 6.01298C4.93946 7.62843 6.2537 8.94267 7.86915 8.94267C9.4846 8.94267 10.7988 7.62843 10.7988 6.01298C10.7988 4.39753 9.4846 3.08328 7.86915 3.08328ZM7.86915 7.77079C6.89995 7.77079 6.11133 6.98218 6.11133 6.01298C6.11133 5.04366 6.89995 4.25516 7.86915 4.25516C8.83846 4.25516 9.62696 5.04366 9.62696 6.01298C9.62696 6.98218 8.83846 7.77079 7.86915 7.77079Z" fill="#838383"/>
</svg>
