<svg width="17" height="17" viewBox="0 0 17 17" fill="none" xmlns="http://www.w3.org/2000/svg">
<path d="M8.5 12.8213C8.90451 12.8213 9.23242 12.4934 9.23242 12.0889C9.23242 11.6844 8.90451 11.3564 8.5 11.3564C8.09549 11.3564 7.76758 11.6844 7.76758 12.0889C7.76758 12.4934 8.09549 12.8213 8.5 12.8213Z" fill="#838383"/>
<path d="M8.5 1C4.35496 1 1 4.3544 1 8.5C1 12.645 4.3544 16 8.5 16C12.645 16 16 12.6456 16 8.5C16 4.35496 12.6456 1 8.5 1ZM8.5 14.8281C5.00263 14.8281 2.17188 11.9978 2.17188 8.5C2.17188 5.00263 5.00216 2.17188 8.5 2.17188C11.9974 2.17188 14.8281 5.00216 14.8281 8.5C14.8281 11.9974 11.9978 14.8281 8.5 14.8281Z" fill="#838383"/>
<path d="M8.5 4.76465C7.20766 4.76465 6.15625 5.81605 6.15625 7.1084C6.15625 7.43201 6.41857 7.69434 6.74219 7.69434C7.0658 7.69434 7.32812 7.43201 7.32812 7.1084C7.32812 6.46223 7.85383 5.93652 8.5 5.93652C9.14617 5.93652 9.67188 6.46223 9.67188 7.1084C9.67188 7.75457 9.14617 8.28027 8.5 8.28027C8.17639 8.28027 7.91406 8.5426 7.91406 8.86621V10.3311C7.91406 10.6547 8.17639 10.917 8.5 10.917C8.82361 10.917 9.08594 10.6547 9.08594 10.3311V9.378C10.0957 9.11717 10.8438 8.19851 10.8438 7.1084C10.8438 5.81605 9.79234 4.76465 8.5 4.76465Z" fill="#838383"/>
</svg>
