<svg width="20" height="20" viewBox="0 0 20 20" fill="none" xmlns="http://www.w3.org/2000/svg">
<path d="M10 0C4.47297 0 0 4.47254 0 10C0 15.5271 4.47254 20 10 20C15.527 20 20 15.5275 20 10C20 4.47293 15.5275 0 10 0ZM10 18.4375C5.33656 18.4375 1.5625 14.6638 1.5625 10C1.5625 5.33652 5.33621 1.5625 10 1.5625C14.6634 1.5625 18.4375 5.33621 18.4375 10C18.4375 14.6635 14.6638 18.4375 10 18.4375Z" fill="#E2243C"/>
<path d="M13.4209 12.3166L11.1044 10.0001L13.4209 7.6836C13.726 7.37853 13.726 6.88388 13.421 6.57876C13.1158 6.27364 12.6212 6.27368 12.3161 6.57876L9.9996 8.89524L7.68308 6.57876C7.37804 6.27364 6.88331 6.27364 6.57824 6.57876C6.27316 6.88388 6.27316 7.37853 6.57828 7.6836L8.89476 10.0001L6.57828 12.3166C6.27316 12.6217 6.27312 13.1163 6.57824 13.4214C6.88343 13.7266 7.37808 13.7265 7.68308 13.4214L9.9996 11.1049L12.3161 13.4214C12.6211 13.7265 13.1158 13.7265 13.421 13.4214C13.7261 13.1163 13.726 12.6217 13.4209 12.3166Z" fill="#E2243C"/>
</svg>
