<svg width="13" height="8" viewBox="0 0 13 8" fill="none" xmlns="http://www.w3.org/2000/svg">
<path d="M6.50254 5.2173L2.01317 0.728133C1.88985 0.604523 1.72498 0.536524 1.54917 0.536524C1.37327 0.536524 1.20849 0.604523 1.08498 0.728133L0.691805 1.1215C0.568097 1.24491 0.5 1.40989 0.5 1.58569C0.5 1.7615 0.568097 1.92628 0.691805 2.04979L6.03678 7.39486C6.16068 7.51886 6.32624 7.58677 6.50224 7.58628C6.67903 7.58677 6.84439 7.51896 6.96839 7.39486L12.3082 2.05477C12.4319 1.93125 12.5 1.76647 12.5 1.59057C12.5 1.41477 12.4319 1.24999 12.3082 1.12638L11.915 0.733108C11.6591 0.477206 11.2425 0.477206 10.9867 0.733109L6.50254 5.2173Z" fill="#939393"/>
</svg>
