<?xml version="1.0" encoding="utf-8"?><svg width="29" height="27" xmlns="http://www.w3.org/2000/svg" viewBox="0 0 29 27"><path d="M18.414 2.297a2.092 2.092 0 00-3.83-.505l-.322.558-.322-.558a2.092 2.092 0 00-2.857-.766 2.097 2.097 0 00-.765 2.86l1.529 2.651-5.642 9.784H2.09a2.095 2.095 0 000 4.187h15.881l-2.415-4.187h-4.523l7.171-12.435c.28-.484.354-1.049.21-1.589z"/><path d="M26.432 16.321H22.32l-4.677-8.109-2.414 4.187 7.26 12.59a2.102 2.102 0 001.815 1.048 2.097 2.097 0 001.808-3.141l-1.378-2.388h1.7a2.095 2.095 0 000-4.187zM2.824 22.183l-.41.713c-.577 1-.234 2.282.765 2.86a2.092 2.092 0 002.857-.766l1.618-2.807h-4.83z"/></svg>