<?xml version="1.0" encoding="utf-8"?><svg width="16" height="12" fill="none" xmlns="http://www.w3.org/2000/svg" viewBox="0 0 16 12"><path d="M15.313 5.762C14.058 3.12 11.206.74 7.869.74 4.115.74 1.416 3.676.426 5.762a.586.586 0 000 .502c1.254 2.641 4.107 5.022 7.443 5.022 3.755 0 6.453-2.937 7.444-5.022a.586.586 0 000-.502zm-7.444 4.353c-2.7 0-4.937-1.78-6.25-4.102C2.926 3.7 5.163 1.911 7.869 1.911c2.7 0 4.938 1.78 6.25 4.102-1.307 2.313-3.544 4.101-6.25 4.101zm0-7.032a2.933 2.933 0 00-2.93 2.93 2.933 2.933 0 002.93 2.93 2.933 2.933 0 002.93-2.93 2.933 2.933 0 00-2.93-2.93zm0 4.688a1.76 1.76 0 01-1.758-1.758c0-.97.789-1.758 1.758-1.758.97 0 1.758.789 1.758 1.758a1.76 1.76 0 01-1.758 1.758z" fill="#838383"/></svg>