<?xml version="1.0" encoding="utf-8"?><svg width="21" height="21" fill="none" xmlns="http://www.w3.org/2000/svg" viewBox="0 0 21 21"><g clip-path="url(#aiclip0)" fill="#929292"><path d="M16.548 10.705a.714.714 0 00-.714.714v7.143c0 .395-.32.714-.715.714H2.262a.714.714 0 01-.714-.714V4.277c0-.395.32-.715.714-.715h8.572a.714.714 0 100-1.428H2.262C1.08 2.134.12 3.094.12 4.277v14.285c0 1.184.959 2.143 2.142 2.143H15.12c1.184 0 2.143-.96 2.143-2.143V11.42a.714.714 0 00-.714-.714z"/><path d="M19.319 1.506a2.734 2.734 0 00-3.867 0l-9.409 9.408a.723.723 0 00-.172.28l-1.429 4.285a.714.714 0 00.903.904l4.286-1.429a.714.714 0 00.28-.172l9.408-9.409a2.734 2.734 0 000-3.867zm-1.01 2.858l-9.286 9.285-2.774.927.923-2.77 9.29-9.286a1.306 1.306 0 012.229.92 1.3 1.3 0 01-.382.924z"/></g><defs><clipPath id="aiclip0"><path fill="#fff" transform="translate(.12 .705)" d="M0 0h20v20H0z"/></clipPath></defs></svg>