<?xml version="1.0" encoding="utf-8"?><svg width="16" height="16" fill="none" xmlns="http://www.w3.org/2000/svg" viewBox="0 0 16 16"><path d="M8 5.667A2.336 2.336 0 0110.333 8 2.336 2.336 0 018 10.333 2.336 2.336 0 015.667 8 2.336 2.336 0 018 5.667zM8 9a1.001 1.001 0 000-2 1.001 1.001 0 000 2z" fill="#E2243C"/><path d="M.667 7.333h1.372A6.008 6.008 0 017.333 2.04V.667a.667.667 0 011.334 0v1.372a6.008 6.008 0 015.294 5.294h1.372a.667.667 0 010 1.334h-1.372a6.008 6.008 0 01-5.294 5.294v1.372a.667.667 0 01-1.334 0v-1.372A6.008 6.008 0 012.04 8.667H.667a.667.667 0 010-1.334zM8 12.667A4.672 4.672 0 0012.667 8 4.672 4.672 0 008 3.333 4.672 4.672 0 003.333 8 4.672 4.672 0 008 12.667z" fill="#E2243C"/></svg>