<?xml version="1.0" encoding="utf-8"?><svg width="21" height="24" xmlns="http://www.w3.org/2000/svg" viewBox="0 0 21 24"><path d="M4.189.844A2.777 2.777 0 001.412.85l10.206 9.677 3.43-3.524L4.187.844zM.392 1.841C.142 2.26 0 2.739 0 3.247v17.478c0 .492.13.961.365 1.372l10.264-10.55L.392 1.841zM19.593 9.583l-3.27-1.855-3.675 3.776 4.503 4.27 2.443-1.386A2.74 2.74 0 0021 11.985a2.737 2.737 0 00-1.407-2.402zM11.658 12.523L1.366 23.1c.447.262.937.4 1.43.4.476 0 .954-.124 1.393-.373l11.671-6.62-4.202-3.985z"/></svg>