<?xml version="1.0" encoding="utf-8"?><svg width="22" height="21" xmlns="http://www.w3.org/2000/svg" viewBox="0 0 22 21"><g clip-path="url(#amclip0)"><path d="M11.353 6.116a4.377 4.377 0 00-4.372 4.372 4.377 4.377 0 004.372 4.372 4.377 4.377 0 004.372-4.372 4.377 4.377 0 00-4.372-4.372zm0 7.27a2.901 2.901 0 01-2.898-2.898c0-1.598 1.3-2.899 2.898-2.899s2.898 1.3 2.898 2.899c0 1.598-1.3 2.898-2.898 2.898z"/><path d="M20.31 7.378l-1.049-.175.597-.85c.542-.723.46-1.761-.173-2.354l-1.867-1.867c-.638-.638-1.656-.707-2.354-.174l-.83.604-.168-.992A1.794 1.794 0 0012.68 0h-2.653c-.893 0-1.66.663-1.783 1.525L8.068 2.58l-.849-.596c-.724-.543-1.762-.461-2.355.172L2.997 4.023c-.637.637-.707 1.656-.176 2.35l.615.858-1 .169c-.91.124-1.57.875-1.57 1.786v2.653c0 .907.648 1.658 1.524 1.782l1.055.176-.596.85c-.543.723-.461 1.761.172 2.354l1.867 1.867c.335.336.815.536 1.283.536.386 0 .76-.128 1.067-.36l.859-.614.168 1c.124.91.875 1.57 1.786 1.57h2.653c.907 0 1.658-.648 1.782-1.524l.177-1.056.84.591c.327.244.699.368 1.106.368.482 0 .937-.19 1.282-.535l1.867-1.867a1.805 1.805 0 00.17-2.36l-.634-.852.976-.164a1.793 1.793 0 001.571-1.787V9.162c0-.89-.657-1.655-1.532-1.784zm.057 4.436c0 .17-.12.302-.32.33l-2.185.368a.737.737 0 00-.469 1.166l1.357 1.825a.347.347 0 01-.034.432l-1.866 1.867a.323.323 0 01-.24.103.366.366 0 01-.24-.087l-1.818-1.277a.738.738 0 00-1.15.482l-.371 2.227a.324.324 0 01-.327.276H10.05c-.17 0-.302-.119-.33-.319l-.368-2.186a.737.737 0 00-1.155-.476l-1.831 1.311a.327.327 0 01-.196.074.392.392 0 01-.24-.104l-1.885-1.883c-.107-.1-.115-.287-.017-.415a.58.58 0 00.018-.024l1.277-1.817a.737.737 0 00-.481-1.15l-2.228-.372a.324.324 0 01-.276-.326V9.186c0-.17.119-.302.319-.33l2.186-.368a.737.737 0 00.477-1.156L4.005 5.496a.348.348 0 01.034-.431L5.922 3.18c.1-.108.287-.115.415-.017a.846.846 0 00.024.018l1.817 1.277a.736.736 0 001.15-.482L9.7 1.75a.324.324 0 01.327-.276h2.652c.171 0 .302.119.33.319l.369 2.186a.737.737 0 001.159.474l1.807-1.313a.347.347 0 01.432.034l1.884 1.883c.107.1.114.287.016.415l-.017.024-1.277 1.817a.738.738 0 00.481 1.15l2.211.369a.324.324 0 01.293.33v2.652z"/></g><defs><clipPath id="amclip0"><path transform="translate(.853)" d="M0 0h21v21H0z"/></clipPath></defs></svg>