<?xml version="1.0" encoding="utf-8"?><svg width="17" height="17" fill="none" xmlns="http://www.w3.org/2000/svg" viewBox="0 0 17 17"><path d="M8.5 12.821a.732.732 0 100-1.465.732.732 0 000 1.465z" fill="#838383"/><path d="M8.5 1A7.496 7.496 0 001 8.5C1 12.645 4.354 16 8.5 16c4.145 0 7.5-3.354 7.5-7.5C16 4.355 12.646 1 8.5 1zm0 13.828A6.325 6.325 0 012.172 8.5 6.325 6.325 0 018.5 2.172 6.325 6.325 0 0114.828 8.5 6.325 6.325 0 018.5 14.828z" fill="#838383"/><path d="M8.5 4.765a2.346 2.346 0 00-2.344 2.343.586.586 0 101.172 0c0-.646.526-1.171 1.172-1.171.646 0 1.172.525 1.172 1.171 0 .647-.526 1.172-1.172 1.172a.586.586 0 00-.586.586v1.465a.586.586 0 001.172 0v-.953a2.348 2.348 0 001.758-2.27A2.346 2.346 0 008.5 4.765z" fill="#838383"/></svg>