<?xml version="1.0" encoding="utf-8"?><svg width="22" height="22" fill="none" xmlns="http://www.w3.org/2000/svg" viewBox="0 0 22 22"><path d="M11 1C5.473 1 1 5.473 1 11s4.473 10 10 10 10-4.473 10-10S16.527 1 11 1zm0 18.438A8.433 8.433 0 012.562 11 8.433 8.433 0 0111 2.562 8.433 8.433 0 0119.438 11 8.433 8.433 0 0111 19.438z" fill="#E2243C"/><path d="M14.42 13.317L12.105 11l2.317-2.316a.781.781 0 00-1.105-1.105L11 9.895 8.683 7.58a.781.781 0 10-1.105 1.105L9.895 11l-2.317 2.317a.781.781 0 101.105 1.104L11 12.105l2.316 2.316a.781.781 0 001.105-1.104z" fill="#E2243C"/></svg>