<?xml version="1.0" encoding="utf-8"?><svg width="17" height="17" xmlns="http://www.w3.org/2000/svg" viewBox="0 0 17 17"><path d="M11.09.72H5.042C2.258.72 0 2.898 0 5.582v5.833c0 2.684 2.258 4.86 5.041 4.86h6.05c2.784 0 5.041-2.176 5.041-4.86V5.58c0-2.684-2.257-4.86-5.041-4.86zm3.53 10.694c0 1.876-1.583 3.402-3.53 3.402H5.042c-1.946 0-3.529-1.526-3.529-3.402V5.58c0-1.876 1.583-3.402 3.53-3.402h6.049c1.946 0 3.529 1.526 3.529 3.402v5.833z"/><path d="M8.066 4.61c-2.227 0-4.033 1.74-4.033 3.887 0 2.148 1.806 3.889 4.033 3.889 2.227 0 4.033-1.741 4.033-3.889 0-2.147-1.806-3.888-4.033-3.888zm0 6.318c-1.39 0-2.52-1.091-2.52-2.43 0-1.341 1.13-2.43 2.52-2.43 1.39 0 2.52 1.089 2.52 2.43 0 1.339-1.13 2.43-2.52 2.43zM12.402 4.836a.528.528 0 00.537-.519.528.528 0 00-.537-.518.528.528 0 00-.538.518c0 .287.24.519.538.519z"/></svg>