<?xml version="1.0" encoding="utf-8"?><svg width="21" height="21" fill="none" xmlns="http://www.w3.org/2000/svg" viewBox="0 0 21 21"><path d="M9.603.51C4.747.51.795 4.463.795 9.319c0 4.857 3.952 8.808 8.808 8.808 4.857 0 8.807-3.951 8.807-8.808 0-4.856-3.95-8.807-8.807-8.807zm0 15.99c-3.96 0-7.182-3.222-7.182-7.182 0-3.96 3.222-7.181 7.182-7.181 3.96 0 7.182 3.221 7.182 7.181S13.563 16.5 9.603 16.5z" fill="#000"/><path d="M20.557 19.123l-4.661-4.661a.812.812 0 10-1.15 1.15l4.662 4.66a.81.81 0 001.15 0 .813.813 0 000-1.15z" fill="#000"/></svg>