<?xml version="1.0" encoding="utf-8"?><svg width="21" height="26" xmlns="http://www.w3.org/2000/svg" viewBox="0 0 21 26"><path d="M10.238 25.227c-.504 0-.982-.16-1.381-.46A21.438 21.438 0 01.622 12.155a.733.733 0 01-.016-.103 9.943 9.943 0 01-.203-2.002c0-5.417 4.408-9.824 9.825-9.824 5.418 0 9.826 4.407 9.826 9.824 0 .72-.077 1.432-.23 2.12a.695.695 0 01-.015.1 21.478 21.478 0 01-8.06 12.387l-.303.222a.706.706 0 01-.068.044c-.347.198-.741.303-1.14.303zm-8.16-13.3a19.975 19.975 0 007.657 11.66c.26.195.604.22.883.077l.254-.186a20 20 0 007.482-11.44.72.72 0 01.015-.1c.143-.61.215-1.244.215-1.887 0-4.606-3.748-8.354-8.356-8.354-4.606 0-8.354 3.748-8.354 8.354 0 .603.064 1.205.19 1.788.007.03.011.059.014.088z"/><path d="M10.228 14.255a4.209 4.209 0 01-4.204-4.204 4.21 4.21 0 014.204-4.205 4.21 4.21 0 014.206 4.205 4.21 4.21 0 01-4.206 4.204zm0-6.938a2.737 2.737 0 00-2.734 2.734 2.737 2.737 0 002.734 2.733 2.737 2.737 0 002.735-2.733 2.738 2.738 0 00-2.735-2.734z"/></svg>