<?xml version="1.0" encoding="utf-8"?><svg width="15" height="16" fill="none" xmlns="http://www.w3.org/2000/svg" viewBox="0 0 15 16"><path d="M14.693 2.158L12.854.321a1.049 1.049 0 00-1.48.001l-9.832 9.836a2.812 2.812 0 00-.679 1.099l-.008.026L0 15.015l3.735-.854.026-.008c.413-.137.793-.37 1.1-.678l9.833-9.837a1.04 1.04 0 00.306-.74c0-.28-.11-.542-.307-.74zM1.56 13.457l.349-1.524 1.177 1.175-1.526.349zm2.598-.934l-1.663-1.66 8.127-8.13 1.662 1.66-8.126 8.13zm8.954-8.959l-1.662-1.66.665-.666 1.662 1.66-.665.666z" fill="#B3B3B3"/></svg>