<?xml version="1.0" encoding="utf-8"?><svg width="53" height="58" fill="none" xmlns="http://www.w3.org/2000/svg" viewBox="0 0 53 58"><g filter="url(#bcfilter0_d)" fill="#003DDA"><path d="M48.47 22.235c0 12.28-9.955 22.235-22.235 22.235S4 34.515 4 22.235 13.955 0 26.235 0 48.47 9.955 48.47 22.235z"/><path d="M19.946 43.58l6.289-6.289 6.289 6.29-6.29 6.288-6.288-6.289z"/></g><path d="M18.93 26.037l-1.64.918a10.17 10.17 0 001.905 2.437l1.288-1.369a8.293 8.293 0 01-1.553-1.986zM21.82 29.047l-.984 1.6c.886.546 1.846.95 2.853 1.2l.454-1.823a8.208 8.208 0 01-2.322-.977zM27.35 30.185a8.37 8.37 0 01-1.178.084h-.024a8.44 8.44 0 01-.338-.007l-.075 1.877c.137.006.276.009.413.009h.024c.483 0 .969-.035 1.443-.102l-.265-1.86zM30.133 29.26a8.26 8.26 0 01-1.15.519l.639 1.767c.484-.175.96-.39 1.413-.638l-.902-1.649zM32.42 27.415a8.338 8.338 0 01-.899.89l1.217 1.432c.393-.334.764-.701 1.102-1.09l-1.42-1.232zM38.671 21.123L36.295 23.5V22c0-2.71-1.055-5.259-2.972-7.175a10.081 10.081 0 00-7.175-2.973c-2.71 0-5.26 1.056-7.176 2.972A10.081 10.081 0 0016 22c0 1.043.158 2.072.469 3.057l1.792-.565A8.269 8.269 0 0117.879 22c0-4.56 3.71-8.268 8.269-8.268S34.416 17.44 34.416 22v1.484l-2.39-2.384-1.327 1.33 4.668 4.656L40 22.452l-1.329-1.329z" fill="#fff"/><defs><filter id="bcfilter0_d" x="0" y="0" width="52.47" height="57.869" filterUnits="userSpaceOnUse" color-interpolation-filters="sRGB"><feFlood flood-opacity="0" result="BackgroundImageFix"/><feColorMatrix in="SourceAlpha" values="0 0 0 0 0 0 0 0 0 0 0 0 0 0 0 0 0 0 127 0"/><feOffset dy="4"/><feGaussianBlur stdDeviation="2"/><feColorMatrix values="0 0 0 0 0 0 0 0 0 0 0 0 0 0 0 0 0 0 0.25 0"/><feBlend in2="BackgroundImageFix" result="effect1_dropShadow"/><feBlend in="SourceGraphic" in2="effect1_dropShadow" result="shape"/></filter></defs></svg>