<?xml version="1.0" encoding="utf-8"?><svg width="53" height="58" fill="none" xmlns="http://www.w3.org/2000/svg" viewBox="0 0 53 58"><g filter="url(#bbfilter0_d)" fill="#E2243C"><path d="M48.47 22.235c0 12.28-9.955 22.235-22.235 22.235S4 34.515 4 22.235 13.955 0 26.235 0 48.47 9.955 48.47 22.235z"/><path d="M19.946 43.58l6.289-6.289 6.289 6.29-6.29 6.288-6.288-6.289z"/></g><path d="M28.213 14.076h-5.868a.977.977 0 00-.978.978v14.668h1.956v-5.867h4.89a4.895 4.895 0 004.89-4.89 4.895 4.895 0 00-4.89-4.89zm0 7.823h-4.89v-5.867h4.89a2.937 2.937 0 012.933 2.933 2.937 2.937 0 01-2.933 2.934z" fill="#fff"/><defs><filter id="bbfilter0_d" x="0" y="0" width="52.47" height="57.869" filterUnits="userSpaceOnUse" color-interpolation-filters="sRGB"><feFlood flood-opacity="0" result="BackgroundImageFix"/><feColorMatrix in="SourceAlpha" values="0 0 0 0 0 0 0 0 0 0 0 0 0 0 0 0 0 0 127 0"/><feOffset dy="4"/><feGaussianBlur stdDeviation="2"/><feColorMatrix values="0 0 0 0 0 0 0 0 0 0 0 0 0 0 0 0 0 0 0.25 0"/><feBlend in2="BackgroundImageFix" result="effect1_dropShadow"/><feBlend in="SourceGraphic" in2="effect1_dropShadow" result="shape"/></filter></defs></svg>