<?xml version="1.0" encoding="utf-8"?><svg width="26" height="25" fill="none" xmlns="http://www.w3.org/2000/svg" viewBox="0 0 26 25"><path d="M19.83 24.243a1.33 1.33 0 001.295-1.625l-1.61-7.085 5.455-4.783a1.328 1.328 0 00-.753-2.325L17 7.77l-2.853-6.678a1.329 1.329 0 00-2.444 0L8.85 7.77l-7.216.655a1.328 1.328 0 00-.755 2.325l5.454 4.782-1.608 7.085a1.328 1.328 0 001.977 1.435l6.223-3.719 6.223 3.721c.21.125.445.189.681.189zm-6.905-5.512c-.237 0-.471.064-.682.189L6.37 22.432l1.518-6.686a1.329 1.329 0 00-.42-1.295l-5.15-4.517 6.813-.618c.49-.045.912-.354 1.104-.806l2.69-6.301 2.693 6.302c.19.45.611.758 1.1.802l6.815.62-5.15 4.516c-.369.323-.53.819-.42 1.296l1.516 6.686-5.873-3.511a1.33 1.33 0 00-.681-.189zM17.055 7.9l.001.002-.001-.002zm-8.258-.003l-.002.002.002-.002z" fill="#000"/></svg>