<?xml version="1.0" encoding="utf-8"?><svg width="24" height="25" fill="none" xmlns="http://www.w3.org/2000/svg" viewBox="0 0 24 25"><path d="M14.516 14.47c.389-.489.649-.733.778-.733.13 0 .614.22 1.453.658.848.44 1.297.704 1.347.794.02.05.03.125.03.225 0 .33-.084.708-.254 1.138-.16.389-.514.718-1.063.988-.55.26-1.058.39-1.528.39-.569 0-1.517-.31-2.845-.93a8.545 8.545 0 01-2.545-1.766c-.72-.729-1.458-1.652-2.216-2.77-.72-1.068-1.074-2.037-1.064-2.905v-.12c.03-.908.4-1.697 1.108-2.366.24-.22.5-.33.78-.33.059 0 .149.01.269.03.12.01.214.016.284.016.19 0 .32.035.39.104.08.06.16.195.239.405.08.2.245.639.494 1.317.25.68.374 1.054.374 1.124 0 .21-.174.499-.524.868-.339.36-.509.589-.509.689 0 .07.025.145.075.224.34.73.849 1.413 1.527 2.052.56.529 1.313 1.033 2.262 1.512.12.07.23.105.329.105.15 0 .42-.24.809-.719zm-2.261 7.203c1.267 0 2.48-.25 3.638-.749 1.168-.5 2.171-1.168 3.01-2.006a9.506 9.506 0 002.007-2.995c.499-1.168.748-2.386.748-3.654 0-1.268-.25-2.48-.748-3.639-.5-1.168-1.169-2.17-2.007-3.01-.838-.838-1.842-1.507-3.01-2.006a9.097 9.097 0 00-3.638-.749c-1.268 0-2.486.25-3.654.75A9.505 9.505 0 005.606 5.62C4.768 6.459 4.1 7.462 3.6 8.63a9.098 9.098 0 00-.75 3.638c0 2.027.6 3.863 1.798 5.51l-1.183 3.49 3.624-1.153c1.577 1.038 3.299 1.557 5.166 1.557zM7.867 1.877A11.024 11.024 0 0112.255.98c1.527 0 2.984.3 4.372.898 1.398.6 2.6 1.403 3.609 2.411 1.008 1.008 1.811 2.211 2.41 3.609.6 1.387.899 2.845.899 4.372 0 1.527-.3 2.99-.899 4.388-.599 1.387-1.402 2.585-2.41 3.593-1.009 1.009-2.212 1.812-3.609 2.411a10.919 10.919 0 01-4.372.898c-1.947 0-3.769-.469-5.466-1.407L.545 24.158l2.036-6.064C1.503 16.317.964 14.375.964 12.269c0-1.527.3-2.985.899-4.372.599-1.398 1.402-2.6 2.41-3.609C5.282 3.28 6.48 2.476 7.867 1.878z" fill="#fff"/></svg>