<?xml version="1.0" encoding="utf-8"?><svg viewBox="0 0 53 58" xmlns="http://www.w3.org/2000/svg" xmlns:xlink="http://www.w3.org/1999/xlink"><style>:root>svg{display:none}:root>svg:target{display:block}</style><svg viewBox="0 0 29 27" id="ic_app-store" xmlns="http://www.w3.org/2000/svg"><path d="M18.414 2.297a2.092 2.092 0 00-3.83-.505l-.322.558-.322-.558a2.092 2.092 0 00-2.857-.766 2.097 2.097 0 00-.765 2.86l1.529 2.651-5.642 9.784H2.09a2.095 2.095 0 000 4.187h15.881l-2.415-4.187h-4.523l7.171-12.435c.28-.484.354-1.049.21-1.589z"/><path d="M26.432 16.321H22.32l-4.677-8.109-2.414 4.187 7.26 12.59a2.102 2.102 0 001.815 1.048 2.097 2.097 0 001.808-3.141l-1.378-2.388h1.7a2.095 2.095 0 000-4.187zM2.824 22.183l-.41.713c-.577 1-.234 2.282.765 2.86a2.092 2.092 0 002.857-.766l1.618-2.807h-4.83z"/></svg><svg fill="none" viewBox="0 0 36 36" id="ic_attach-icon" xmlns="http://www.w3.org/2000/svg"><g clip-path="url(#abclip0)" fill="#9B9B9B"><path d="M26.072 35.147a2.91 2.91 0 01-.744-.096l-22.55-6.04A2.943 2.943 0 01.716 25.44l2.845-10.605a.73.73 0 011.409.376L2.126 25.812a1.48 1.48 0 001.036 1.792l22.541 6.036a1.452 1.452 0 001.775-1.026l1.139-4.22a.728.728 0 01.894-.515.73.73 0 01.515.893l-1.138 4.215a2.913 2.913 0 01-2.816 2.16z"/><path d="M32.703 26.397H9.37a2.92 2.92 0 01-2.917-2.917V5.98A2.92 2.92 0 019.37 3.064h23.333A2.92 2.92 0 0135.62 5.98v17.5a2.92 2.92 0 01-2.917 2.917zM9.37 4.522A1.46 1.46 0 007.91 5.98v17.5A1.46 1.46 0 009.37 24.94h23.333a1.46 1.46 0 001.458-1.459V5.98a1.46 1.46 0 00-1.458-1.458H9.37z"/><path d="M13.745 13.272a2.92 2.92 0 01-2.917-2.917 2.92 2.92 0 012.917-2.916 2.92 2.92 0 012.917 2.916 2.92 2.92 0 01-2.917 2.917zm0-4.375a1.46 1.46 0 00-1.458 1.458 1.46 1.46 0 001.458 1.459 1.46 1.46 0 001.458-1.459 1.46 1.46 0 00-1.458-1.458zM7.285 24.837a.73.73 0 01-.516-1.244l6.887-6.888c.826-.825 2.268-.825 3.093 0l2.05 2.05 5.677-6.81a2.19 2.19 0 011.665-.787h.016c.639 0 1.244.277 1.661.762l7.627 8.899a.728.728 0 11-1.107.95l-7.627-8.9a.721.721 0 00-.554-.253c-.152-.013-.419.092-.56.262l-6.188 7.425a.726.726 0 01-.528.26.702.702 0 01-.548-.212l-2.615-2.615a.749.749 0 00-1.03 0l-6.889 6.888a.726.726 0 01-.514.213z"/></g><defs><clipPath id="abclip0"><path fill="#fff" transform="translate(.62 .147)" d="M0 0h35v35H0z"/></clipPath></defs></svg><svg fill="none" viewBox="0 0 20 20" id="ic_back" xmlns="http://www.w3.org/2000/svg"><g clip-path="url(#acclip0)"><path d="M.122 9.705l6.25-6.25a.416.416 0 11.59.59l-5.54 5.538h18.161a.416.416 0 110 .834H1.423l5.538 5.538a.416.416 0 11-.589.59l-6.25-6.25a.416.416 0 010-.59z" fill="#000"/></g><defs><clipPath id="acclip0"><path fill="#fff" transform="matrix(-1 0 0 1 20 0)" d="M0 0h20v20H0z"/></clipPath></defs></svg><svg viewBox="0 0 24 24" id="ic_cash" xmlns="http://www.w3.org/2000/svg"><g clip-path="url(#adclip0)"><path d="M23.413 8.742a1.593 1.593 0 00-1.08-.44h.066v-2.27c0-.925-.374-1.762-.991-2.38a3.347 3.347 0 00-2.38-.99H4.225c-.925 0-1.762.374-2.38.99a3.347 3.347 0 00-.99 2.38v11.39c0 .925.374 1.762.99 2.38a3.347 3.347 0 002.38.99h14.805c.925 0 1.762-.374 2.379-.99a3.347 3.347 0 00.991-2.38V15.13h-.066c.419 0 .793-.177 1.08-.44.264-.265.44-.662.44-1.08V9.82c0-.418-.176-.793-.44-1.08zM21.188 17.4c0 .595-.243 1.123-.64 1.52a2.132 2.132 0 01-1.52.639H4.225a2.131 2.131 0 01-1.52-.639 2.131 2.131 0 01-.639-1.52V6.032c0-.595.242-1.123.639-1.52a2.131 2.131 0 011.52-.639h14.805c.594 0 1.123.242 1.52.639.396.397.639.925.639 1.52v2.27h-6.83c-.925 0-1.74.374-2.357.969a3.33 3.33 0 00-.97 2.357v.154c0 .925.375 1.74.97 2.357a3.33 3.33 0 002.357.97h6.83v2.29zm1.454-3.79a.337.337 0 01-.088.22.283.283 0 01-.22.089h-7.976a2.153 2.153 0 01-1.498-.617 2.153 2.153 0 01-.617-1.498v-.154c0-.595.242-1.124.617-1.498a2.098 2.098 0 011.498-.617h7.975c.088 0 .176.044.22.088a.283.283 0 01.089.22v3.768z"/><path d="M14.512 10.725a.966.966 0 00-.683.286.966.966 0 00-.286.683c0 .264.11.507.286.683a.967.967 0 00.683.286c.265 0 .507-.11.705-.286a.98.98 0 00.287-.705c0-.264-.11-.507-.287-.705-.198-.132-.44-.242-.705-.242z"/></g><defs><clipPath id="adclip0"><path transform="translate(.853 .227)" d="M0 0h23v23H0z"/></clipPath></defs></svg><svg viewBox="0 0 16 16" id="ic_close" xmlns="http://www.w3.org/2000/svg"><path d="M15.03 1.54L14.2.71 7.53 7.382.86.711l-.83.829L6.7 8.21.03 14.882l.83.83L7.53 9.04l6.67 6.67.83-.829-6.67-6.67 6.67-6.671z"/></svg><svg fill="none" viewBox="0 0 26 26" id="ic_cross" xmlns="http://www.w3.org/2000/svg"><rect x=".5" y=".5" width="25" height="25" rx="12.5" stroke="#E2243C"/><path d="M13.547 12.453V6h-1.094v6.453H6v1.094h6.453V20h1.094v-6.453H20v-1.094h-6.453z" fill="#E2243C"/></svg><svg fill="none" viewBox="0 0 20 20" id="ic_cross-one" xmlns="http://www.w3.org/2000/svg"><path d="M10.781 9.219V0H9.22v9.219H0v1.562h9.219V20h1.562v-9.219H20V9.22h-9.219z" fill="#E2243C"/></svg><svg viewBox="0 0 21 21" id="ic_crosshair" xmlns="http://www.w3.org/2000/svg"><path d="M10.986 9.819V.599H9.424v9.22H.205v1.562h9.219V20.6h1.562V11.38h9.22V9.82h-9.22z"/></svg><svg fill="none" viewBox="0 0 21 21" id="ic_edit" xmlns="http://www.w3.org/2000/svg"><g clip-path="url(#aiclip0)" fill="#929292"><path d="M16.548 10.705a.714.714 0 00-.714.714v7.143c0 .395-.32.714-.715.714H2.262a.714.714 0 01-.714-.714V4.277c0-.395.32-.715.714-.715h8.572a.714.714 0 100-1.428H2.262C1.08 2.134.12 3.094.12 4.277v14.285c0 1.184.959 2.143 2.142 2.143H15.12c1.184 0 2.143-.96 2.143-2.143V11.42a.714.714 0 00-.714-.714z"/><path d="M19.319 1.506a2.734 2.734 0 00-3.867 0l-9.409 9.408a.723.723 0 00-.172.28l-1.429 4.285a.714.714 0 00.903.904l4.286-1.429a.714.714 0 00.28-.172l9.408-9.409a2.734 2.734 0 000-3.867zm-1.01 2.858l-9.286 9.285-2.774.927.923-2.77 9.29-9.286a1.306 1.306 0 012.229.92 1.3 1.3 0 01-.382.924z"/></g><defs><clipPath id="aiclip0"><path fill="#fff" transform="translate(.12 .705)" d="M0 0h20v20H0z"/></clipPath></defs></svg><svg fill="none" viewBox="0 0 16 12" id="ic_eye" xmlns="http://www.w3.org/2000/svg"><path d="M15.313 5.762C14.058 3.12 11.206.74 7.869.74 4.115.74 1.416 3.676.426 5.762a.586.586 0 000 .502c1.254 2.641 4.107 5.022 7.443 5.022 3.755 0 6.453-2.937 7.444-5.022a.586.586 0 000-.502zm-7.444 4.353c-2.7 0-4.937-1.78-6.25-4.102C2.926 3.7 5.163 1.911 7.869 1.911c2.7 0 4.938 1.78 6.25 4.102-1.307 2.313-3.544 4.101-6.25 4.101zm0-7.032a2.933 2.933 0 00-2.93 2.93 2.933 2.933 0 002.93 2.93 2.933 2.933 0 002.93-2.93 2.933 2.933 0 00-2.93-2.93zm0 4.688a1.76 1.76 0 01-1.758-1.758c0-.97.789-1.758 1.758-1.758.97 0 1.758.789 1.758 1.758a1.76 1.76 0 01-1.758 1.758z" fill="#838383"/></svg><svg viewBox="0 0 9 17" id="ic_fb" xmlns="http://www.w3.org/2000/svg"><path d="M8.216 0H7.198c-2.83 0-5.134 2.015-5.134 4.492v1.896H.324c-.179 0-.324.127-.324.284v2.272c0 .156.145.284.324.284h1.74v6.956c0 .157.146.284.325.284h2.595c.18 0 .325-.127.325-.284V9.228H7.89c.179 0 .324-.128.324-.284V6.672c0-.157-.145-.284-.324-.284H5.309V4.492c0-.911.847-1.653 1.889-1.653h1.018c.18 0 .325-.127.325-.284V.284C8.54.127 8.395 0 8.216 0z"/></svg><svg fill="none" viewBox="0 0 20 20" id="ic_filter" xmlns="http://www.w3.org/2000/svg"><path d="M18.925 0H1.094a.838.838 0 00-.747.455.85.85 0 00.066.884l6.533 9.202.007.01c.237.32.365.708.366 1.107v7.502a.834.834 0 001.163.774l3.67-1.4c.33-.1.548-.41.548-.784v-6.092c0-.399.13-.787.367-1.107l.006-.01 6.532-9.203a.849.849 0 00.067-.883.838.838 0 00-.747-.455zm-6.677 9.95a2.89 2.89 0 00-.563 1.708v5.969l-3.35 1.277v-7.246a2.889 2.889 0 00-.564-1.709L1.429 1.015H18.59L12.248 9.95z" fill="#000"/></svg><svg viewBox="0 0 22 21" id="ic_gear" xmlns="http://www.w3.org/2000/svg"><g clip-path="url(#amclip0)"><path d="M11.353 6.116a4.377 4.377 0 00-4.372 4.372 4.377 4.377 0 004.372 4.372 4.377 4.377 0 004.372-4.372 4.377 4.377 0 00-4.372-4.372zm0 7.27a2.901 2.901 0 01-2.898-2.898c0-1.598 1.3-2.899 2.898-2.899s2.898 1.3 2.898 2.899c0 1.598-1.3 2.898-2.898 2.898z"/><path d="M20.31 7.378l-1.049-.175.597-.85c.542-.723.46-1.761-.173-2.354l-1.867-1.867c-.638-.638-1.656-.707-2.354-.174l-.83.604-.168-.992A1.794 1.794 0 0012.68 0h-2.653c-.893 0-1.66.663-1.783 1.525L8.068 2.58l-.849-.596c-.724-.543-1.762-.461-2.355.172L2.997 4.023c-.637.637-.707 1.656-.176 2.35l.615.858-1 .169c-.91.124-1.57.875-1.57 1.786v2.653c0 .907.648 1.658 1.524 1.782l1.055.176-.596.85c-.543.723-.461 1.761.172 2.354l1.867 1.867c.335.336.815.536 1.283.536.386 0 .76-.128 1.067-.36l.859-.614.168 1c.124.91.875 1.57 1.786 1.57h2.653c.907 0 1.658-.648 1.782-1.524l.177-1.056.84.591c.327.244.699.368 1.106.368.482 0 .937-.19 1.282-.535l1.867-1.867a1.805 1.805 0 00.17-2.36l-.634-.852.976-.164a1.793 1.793 0 001.571-1.787V9.162c0-.89-.657-1.655-1.532-1.784zm.057 4.436c0 .17-.12.302-.32.33l-2.185.368a.737.737 0 00-.469 1.166l1.357 1.825a.347.347 0 01-.034.432l-1.866 1.867a.323.323 0 01-.24.103.366.366 0 01-.24-.087l-1.818-1.277a.738.738 0 00-1.15.482l-.371 2.227a.324.324 0 01-.327.276H10.05c-.17 0-.302-.119-.33-.319l-.368-2.186a.737.737 0 00-1.155-.476l-1.831 1.311a.327.327 0 01-.196.074.392.392 0 01-.24-.104l-1.885-1.883c-.107-.1-.115-.287-.017-.415a.58.58 0 00.018-.024l1.277-1.817a.737.737 0 00-.481-1.15l-2.228-.372a.324.324 0 01-.276-.326V9.186c0-.17.119-.302.319-.33l2.186-.368a.737.737 0 00.477-1.156L4.005 5.496a.348.348 0 01.034-.431L5.922 3.18c.1-.108.287-.115.415-.017a.846.846 0 00.024.018l1.817 1.277a.736.736 0 001.15-.482L9.7 1.75a.324.324 0 01.327-.276h2.652c.171 0 .302.119.33.319l.369 2.186a.737.737 0 001.159.474l1.807-1.313a.347.347 0 01.432.034l1.884 1.883c.107.1.114.287.016.415l-.017.024-1.277 1.817a.738.738 0 00.481 1.15l2.211.369a.324.324 0 01.293.33v2.652z"/></g><defs><clipPath id="amclip0"><path transform="translate(.853)" d="M0 0h21v21H0z"/></clipPath></defs></svg><svg viewBox="0 0 21 24" id="ic_google-play" xmlns="http://www.w3.org/2000/svg"><path d="M4.189.844A2.777 2.777 0 001.412.85l10.206 9.677 3.43-3.524L4.187.844zM.392 1.841C.142 2.26 0 2.739 0 3.247v17.478c0 .492.13.961.365 1.372l10.264-10.55L.392 1.841zM19.593 9.583l-3.27-1.855-3.675 3.776 4.503 4.27 2.443-1.386A2.74 2.74 0 0021 11.985a2.737 2.737 0 00-1.407-2.402zM11.658 12.523L1.366 23.1c.447.262.937.4 1.43.4.476 0 .954-.124 1.393-.373l11.671-6.62-4.202-3.985z"/></svg><svg fill="none" viewBox="0 0 16 16" id="ic_gps" xmlns="http://www.w3.org/2000/svg"><path d="M8 5.667A2.336 2.336 0 0110.333 8 2.336 2.336 0 018 10.333 2.336 2.336 0 015.667 8 2.336 2.336 0 018 5.667zM8 9a1.001 1.001 0 000-2 1.001 1.001 0 000 2z" fill="#E2243C"/><path d="M.667 7.333h1.372A6.008 6.008 0 017.333 2.04V.667a.667.667 0 011.334 0v1.372a6.008 6.008 0 015.294 5.294h1.372a.667.667 0 010 1.334h-1.372a6.008 6.008 0 01-5.294 5.294v1.372a.667.667 0 01-1.334 0v-1.372A6.008 6.008 0 012.04 8.667H.667a.667.667 0 010-1.334zM8 12.667A4.672 4.672 0 0012.667 8 4.672 4.672 0 008 3.333 4.672 4.672 0 003.333 8 4.672 4.672 0 008 12.667z" fill="#E2243C"/></svg><svg fill="none" viewBox="0 0 17 17" id="ic_help" xmlns="http://www.w3.org/2000/svg"><path d="M8.5 12.821a.732.732 0 100-1.465.732.732 0 000 1.465z" fill="#838383"/><path d="M8.5 1A7.496 7.496 0 001 8.5C1 12.645 4.354 16 8.5 16c4.145 0 7.5-3.354 7.5-7.5C16 4.355 12.646 1 8.5 1zm0 13.828A6.325 6.325 0 012.172 8.5 6.325 6.325 0 018.5 2.172 6.325 6.325 0 0114.828 8.5 6.325 6.325 0 018.5 14.828z" fill="#838383"/><path d="M8.5 4.765a2.346 2.346 0 00-2.344 2.343.586.586 0 101.172 0c0-.646.526-1.171 1.172-1.171.646 0 1.172.525 1.172 1.171 0 .647-.526 1.172-1.172 1.172a.586.586 0 00-.586.586v1.465a.586.586 0 001.172 0v-.953a2.348 2.348 0 001.758-2.27A2.346 2.346 0 008.5 4.765z" fill="#838383"/></svg><svg viewBox="0 0 17 17" id="ic_ig" xmlns="http://www.w3.org/2000/svg"><path d="M11.09.72H5.042C2.258.72 0 2.898 0 5.582v5.833c0 2.684 2.258 4.86 5.041 4.86h6.05c2.784 0 5.041-2.176 5.041-4.86V5.58c0-2.684-2.257-4.86-5.041-4.86zm3.53 10.694c0 1.876-1.583 3.402-3.53 3.402H5.042c-1.946 0-3.529-1.526-3.529-3.402V5.58c0-1.876 1.583-3.402 3.53-3.402h6.049c1.946 0 3.529 1.526 3.529 3.402v5.833z"/><path d="M8.066 4.61c-2.227 0-4.033 1.74-4.033 3.887 0 2.148 1.806 3.889 4.033 3.889 2.227 0 4.033-1.741 4.033-3.889 0-2.147-1.806-3.888-4.033-3.888zm0 6.318c-1.39 0-2.52-1.091-2.52-2.43 0-1.341 1.13-2.43 2.52-2.43 1.39 0 2.52 1.089 2.52 2.43 0 1.339-1.13 2.43-2.52 2.43zM12.402 4.836a.528.528 0 00.537-.519.528.528 0 00-.537-.518.528.528 0 00-.538.518c0 .287.24.519.538.519z"/></svg><svg fill="none" viewBox="0 0 22 22" id="ic_input-invalid" xmlns="http://www.w3.org/2000/svg"><path d="M11 1C5.473 1 1 5.473 1 11s4.473 10 10 10 10-4.473 10-10S16.527 1 11 1zm0 18.438A8.433 8.433 0 012.562 11 8.433 8.433 0 0111 2.562 8.433 8.433 0 0119.438 11 8.433 8.433 0 0111 19.438z" fill="#E2243C"/><path d="M14.42 13.317L12.105 11l2.317-2.316a.781.781 0 00-1.105-1.105L11 9.895 8.683 7.58a.781.781 0 10-1.105 1.105L9.895 11l-2.317 2.317a.781.781 0 101.105 1.104L11 12.105l2.316 2.316a.781.781 0 001.105-1.104z" fill="#E2243C"/></svg><svg fill="none" viewBox="0 0 22 22" id="ic_input-valid" xmlns="http://www.w3.org/2000/svg"><path d="M15.42 7.827c.306.305.306.8 0 1.105l-5.24 5.241a.781.781 0 01-1.106 0L6.58 11.678a.78.78 0 111.104-1.105l1.943 1.943 4.689-4.69a.781.781 0 011.104 0zM21 11c0 5.527-4.473 10-10 10S1 16.527 1 11 5.473 1 11 1s10 4.473 10 10zm-1.563 0A8.433 8.433 0 0011 2.562 8.433 8.433 0 002.562 11 8.433 8.433 0 0011 19.438 8.433 8.433 0 0019.438 11z" fill="#319A00"/></svg><svg fill="none" viewBox="0 0 21 21" id="ic_loupe" xmlns="http://www.w3.org/2000/svg"><path d="M9.603.51C4.747.51.795 4.463.795 9.319c0 4.857 3.952 8.808 8.808 8.808 4.857 0 8.807-3.951 8.807-8.808 0-4.856-3.95-8.807-8.807-8.807zm0 15.99c-3.96 0-7.182-3.222-7.182-7.182 0-3.96 3.222-7.181 7.182-7.181 3.96 0 7.182 3.221 7.182 7.181S13.563 16.5 9.603 16.5z" fill="#000"/><path d="M20.557 19.123l-4.661-4.661a.812.812 0 10-1.15 1.15l4.662 4.66a.81.81 0 001.15 0 .813.813 0 000-1.15z" fill="#000"/></svg><svg viewBox="0 0 26 26" id="ic_order" xmlns="http://www.w3.org/2000/svg"><g clip-path="url(#auclip0)"><path d="M18.556 25.773a.735.735 0 01-.437-.144l-3.82-2.821a11.11 11.11 0 01-9.225-3.15C.76 15.342.76 8.322 5.074 4.007c4.314-4.313 11.335-4.314 15.649 0a11 11 0 012.923 10.46c-.12.495-.285 1.014-.486 1.513l-1.723 4.098a.736.736 0 01-1.356-.57L21.8 15.42a9.603 9.603 0 00.427-1.344 9.54 9.54 0 00-2.544-9.028c-3.742-3.741-9.828-3.741-13.569 0-3.74 3.74-3.74 9.828 0 13.568a9.634 9.634 0 008.267 2.694.73.73 0 01.55.135l3.31 2.444.726-1.73a.736.736 0 011.356.57l-1.09 2.592a.736.736 0 01-.677.451z"/><path d="M17.56 9.558H8.7a.588.588 0 110-1.176h8.86a.588.588 0 110 1.176zM17.56 12.931H8.7a.588.588 0 110-1.176h8.86a.588.588 0 110 1.176zM13.765 16.305H8.7a.588.588 0 110-1.177h5.064a.588.588 0 110 1.177z"/></g><defs><clipPath id="auclip0"><path transform="translate(.403 .773)" d="M0 0h25v25H0z"/></clipPath></defs></svg><svg viewBox="0 0 22 21" id="ic_parking" xmlns="http://www.w3.org/2000/svg"><g clip-path="url(#avclip0)"><path d="M19.153 0h-16.5C1.413 0 .403 1.01.403 2.25v16.5c0 1.24 1.01 2.25 2.25 2.25h16.5c1.241 0 2.25-1.01 2.25-2.25V2.25c0-1.24-1.009-2.25-2.25-2.25zm.75 18.75a.75.75 0 01-.75.75h-16.5a.75.75 0 01-.75-.75V2.25a.75.75 0 01.75-.75h16.5a.75.75 0 01.75.75v16.5z"/><path d="M11.653 4.5h-4.5a.75.75 0 00-.75.75V16.5h1.5V12h3.75a3.754 3.754 0 003.75-3.75 3.754 3.754 0 00-3.75-3.75zm0 6h-3.75V6h3.75c1.241 0 2.25 1.01 2.25 2.25s-1.009 2.25-2.25 2.25z"/></g><defs><clipPath id="avclip0"><path transform="translate(.403)" d="M0 0h21v21H0z"/></clipPath></defs></svg><svg fill="none" viewBox="0 0 12 16" id="ic_pen" xmlns="http://www.w3.org/2000/svg"><path d="M6.04 15.412c-.301 0-.588-.095-.828-.276A12.863 12.863 0 01.272 7.57a.44.44 0 01-.01-.062A5.901 5.901 0 016.035.412a5.902 5.902 0 015.758 7.167.415.415 0 01-.01.06 12.886 12.886 0 01-4.835 7.432l-.182.133a1.382 1.382 0 01-.725.208zm-4.895-7.98a11.985 11.985 0 004.594 6.996.501.501 0 00.53.047l.152-.112a12 12 0 004.49-6.863.43.43 0 01.009-.06 5.019 5.019 0 00-4.885-6.145A5.018 5.018 0 001.137 7.38a.453.453 0 01.008.053z" fill="#E2243C"/><path d="M6.035 8.83a2.525 2.525 0 01-2.523-2.523 2.526 2.526 0 012.523-2.523A2.526 2.526 0 018.56 6.307 2.526 2.526 0 016.035 8.83zm0-4.164c-.904 0-1.64.736-1.64 1.641 0 .904.736 1.64 1.64 1.64.905 0 1.641-.736 1.641-1.64 0-.905-.736-1.64-1.64-1.64z" fill="#E2243C"/></svg><svg fill="none" viewBox="0 0 15 16" id="ic_pencil" xmlns="http://www.w3.org/2000/svg"><path d="M14.693 2.158L12.854.321a1.049 1.049 0 00-1.48.001l-9.832 9.836a2.812 2.812 0 00-.679 1.099l-.008.026L0 15.015l3.735-.854.026-.008c.413-.137.793-.37 1.1-.678l9.833-9.837a1.04 1.04 0 00.306-.74c0-.28-.11-.542-.307-.74zM1.56 13.457l.349-1.524 1.177 1.175-1.526.349zm2.598-.934l-1.663-1.66 8.127-8.13 1.662 1.66-8.126 8.13zm8.954-8.959l-1.662-1.66.665-.666 1.662 1.66-.665.666z" fill="#B3B3B3"/></svg><svg fill="none" viewBox="0 0 12 19" id="ic_phone" xmlns="http://www.w3.org/2000/svg"><rect x=".705" y="1.387" width="10.791" height="16.5" rx="1.5" stroke="#000"/><path stroke="#000" stroke-linecap="round" d="M4.28 4.887h4"/></svg><svg viewBox="0 0 21 26" id="ic_pin" xmlns="http://www.w3.org/2000/svg"><path d="M10.238 25.227c-.504 0-.982-.16-1.381-.46A21.438 21.438 0 01.622 12.155a.733.733 0 01-.016-.103 9.943 9.943 0 01-.203-2.002c0-5.417 4.408-9.824 9.825-9.824 5.418 0 9.826 4.407 9.826 9.824 0 .72-.077 1.432-.23 2.12a.695.695 0 01-.015.1 21.478 21.478 0 01-8.06 12.387l-.303.222a.706.706 0 01-.068.044c-.347.198-.741.303-1.14.303zm-8.16-13.3a19.975 19.975 0 007.657 11.66c.26.195.604.22.883.077l.254-.186a20 20 0 007.482-11.44.72.72 0 01.015-.1c.143-.61.215-1.244.215-1.887 0-4.606-3.748-8.354-8.356-8.354-4.606 0-8.354 3.748-8.354 8.354 0 .603.064 1.205.19 1.788.007.03.011.059.014.088z"/><path d="M10.228 14.255a4.209 4.209 0 01-4.204-4.204 4.21 4.21 0 014.204-4.205 4.21 4.21 0 014.206 4.205 4.21 4.21 0 01-4.206 4.204zm0-6.938a2.737 2.737 0 00-2.734 2.734 2.737 2.737 0 002.734 2.733 2.737 2.737 0 002.735-2.733 2.738 2.738 0 00-2.735-2.734z"/></svg><svg fill="none" viewBox="0 0 53 58" id="ic_pin-offer" xmlns="http://www.w3.org/2000/svg"><g filter="url(#bafilter0_d)" fill="#00AF27"><path d="M48.47 22.235c0 12.28-9.955 22.235-22.235 22.235S4 34.515 4 22.235 13.955 0 26.235 0 48.47 9.955 48.47 22.235z"/><path d="M19.946 43.58l6.289-6.289 6.289 6.29-6.29 6.288-6.288-6.289z"/></g><g clip-path="url(#baclip0)" fill="#fff"><path d="M31.152 36a.734.734 0 01-.437-.144l-3.82-2.821a11.11 11.11 0 01-9.224-3.15c-4.314-4.315-4.314-11.335 0-15.65 4.314-4.313 11.334-4.314 15.649 0a11 11 0 012.923 10.46c-.12.495-.286 1.014-.487 1.513l-1.722 4.098a.736.736 0 01-1.356-.57l1.718-4.088c.17-.42.313-.867.423-1.32l.005-.024a9.54 9.54 0 00-2.544-9.028c-3.742-3.741-9.829-3.74-13.57 0-3.74 3.74-3.74 9.828 0 13.569a9.634 9.634 0 008.268 2.693.73.73 0 01.55.135l3.309 2.444.727-1.73a.736.736 0 011.356.57l-1.09 2.592a.736.736 0 01-.678.451z"/><path d="M30.156 19.785h-8.859a.588.588 0 110-1.176h8.86a.588.588 0 010 1.176zM30.156 23.159h-8.859a.588.588 0 110-1.177h8.86a.588.588 0 010 1.177zM26.361 26.532h-5.064a.588.588 0 110-1.177h5.064a.588.588 0 110 1.177z"/></g><defs><clipPath id="baclip0"><path fill="#fff" transform="translate(13 11)" d="M0 0h25v25H0z"/></clipPath><filter id="bafilter0_d" x="0" y="0" width="52.47" height="57.869" filterUnits="userSpaceOnUse" color-interpolation-filters="sRGB"><feFlood flood-opacity="0" result="BackgroundImageFix"/><feColorMatrix in="SourceAlpha" values="0 0 0 0 0 0 0 0 0 0 0 0 0 0 0 0 0 0 127 0"/><feOffset dy="4"/><feGaussianBlur stdDeviation="2"/><feColorMatrix values="0 0 0 0 0 0 0 0 0 0 0 0 0 0 0 0 0 0 0.25 0"/><feBlend in2="BackgroundImageFix" result="effect1_dropShadow"/><feBlend in="SourceGraphic" in2="effect1_dropShadow" result="shape"/></filter></defs></svg><svg fill="none" viewBox="0 0 53 58" id="ic_pin-parking" xmlns="http://www.w3.org/2000/svg"><g filter="url(#bbfilter0_d)" fill="#E2243C"><path d="M48.47 22.235c0 12.28-9.955 22.235-22.235 22.235S4 34.515 4 22.235 13.955 0 26.235 0 48.47 9.955 48.47 22.235z"/><path d="M19.946 43.58l6.289-6.289 6.289 6.29-6.29 6.288-6.288-6.289z"/></g><path d="M28.213 14.076h-5.868a.977.977 0 00-.978.978v14.668h1.956v-5.867h4.89a4.895 4.895 0 004.89-4.89 4.895 4.895 0 00-4.89-4.89zm0 7.823h-4.89v-5.867h4.89a2.937 2.937 0 012.933 2.933 2.937 2.937 0 01-2.933 2.934z" fill="#fff"/><defs><filter id="bbfilter0_d" x="0" y="0" width="52.47" height="57.869" filterUnits="userSpaceOnUse" color-interpolation-filters="sRGB"><feFlood flood-opacity="0" result="BackgroundImageFix"/><feColorMatrix in="SourceAlpha" values="0 0 0 0 0 0 0 0 0 0 0 0 0 0 0 0 0 0 127 0"/><feOffset dy="4"/><feGaussianBlur stdDeviation="2"/><feColorMatrix values="0 0 0 0 0 0 0 0 0 0 0 0 0 0 0 0 0 0 0.25 0"/><feBlend in2="BackgroundImageFix" result="effect1_dropShadow"/><feBlend in="SourceGraphic" in2="effect1_dropShadow" result="shape"/></filter></defs></svg><svg fill="none" viewBox="0 0 53 58" id="ic_pin-swap" xmlns="http://www.w3.org/2000/svg"><g filter="url(#bcfilter0_d)" fill="#003DDA"><path d="M48.47 22.235c0 12.28-9.955 22.235-22.235 22.235S4 34.515 4 22.235 13.955 0 26.235 0 48.47 9.955 48.47 22.235z"/><path d="M19.946 43.58l6.289-6.289 6.289 6.29-6.29 6.288-6.288-6.289z"/></g><path d="M18.93 26.037l-1.64.918a10.17 10.17 0 001.905 2.437l1.288-1.369a8.293 8.293 0 01-1.553-1.986zM21.82 29.047l-.984 1.6c.886.546 1.846.95 2.853 1.2l.454-1.823a8.208 8.208 0 01-2.322-.977zM27.35 30.185a8.37 8.37 0 01-1.178.084h-.024a8.44 8.44 0 01-.338-.007l-.075 1.877c.137.006.276.009.413.009h.024c.483 0 .969-.035 1.443-.102l-.265-1.86zM30.133 29.26a8.26 8.26 0 01-1.15.519l.639 1.767c.484-.175.96-.39 1.413-.638l-.902-1.649zM32.42 27.415a8.338 8.338 0 01-.899.89l1.217 1.432c.393-.334.764-.701 1.102-1.09l-1.42-1.232zM38.671 21.123L36.295 23.5V22c0-2.71-1.055-5.259-2.972-7.175a10.081 10.081 0 00-7.175-2.973c-2.71 0-5.26 1.056-7.176 2.972A10.081 10.081 0 0016 22c0 1.043.158 2.072.469 3.057l1.792-.565A8.269 8.269 0 0117.879 22c0-4.56 3.71-8.268 8.269-8.268S34.416 17.44 34.416 22v1.484l-2.39-2.384-1.327 1.33 4.668 4.656L40 22.452l-1.329-1.329z" fill="#fff"/><defs><filter id="bcfilter0_d" x="0" y="0" width="52.47" height="57.869" filterUnits="userSpaceOnUse" color-interpolation-filters="sRGB"><feFlood flood-opacity="0" result="BackgroundImageFix"/><feColorMatrix in="SourceAlpha" values="0 0 0 0 0 0 0 0 0 0 0 0 0 0 0 0 0 0 127 0"/><feOffset dy="4"/><feGaussianBlur stdDeviation="2"/><feColorMatrix values="0 0 0 0 0 0 0 0 0 0 0 0 0 0 0 0 0 0 0.25 0"/><feBlend in2="BackgroundImageFix" result="effect1_dropShadow"/><feBlend in="SourceGraphic" in2="effect1_dropShadow" result="shape"/></filter></defs></svg><svg viewBox="0 0 25 25" id="ic_replace" xmlns="http://www.w3.org/2000/svg"><g clip-path="url(#bdclip0)"><path d="M2.973 16.537l-1.64.918a10.17 10.17 0 001.906 2.437l1.287-1.369a8.294 8.294 0 01-1.553-1.986zM5.864 19.547l-.985 1.6c.886.546 1.846.95 2.853 1.2l.454-1.823a8.21 8.21 0 01-2.322-.977zM11.393 20.685a8.37 8.37 0 01-1.178.084h-.024a8.44 8.44 0 01-.338-.007l-.075 1.878c.136.005.275.008.413.008h.024c.483 0 .969-.035 1.443-.102l-.265-1.86zM14.176 19.76c-.369.201-.756.376-1.15.519l.639 1.767c.484-.175.96-.39 1.413-.638l-.902-1.649zM16.463 17.915a8.337 8.337 0 01-.899.89l1.217 1.432c.393-.334.764-.701 1.102-1.09l-1.42-1.232zM22.714 11.623L20.338 14v-1.5c0-2.71-1.055-5.259-2.972-7.176a10.081 10.081 0 00-7.175-2.972c-2.71 0-5.26 1.056-7.176 2.972A10.081 10.081 0 00.043 12.5c0 1.043.158 2.072.469 3.057l1.792-.565a8.267 8.267 0 01-.382-2.492c0-4.56 3.71-8.269 8.269-8.269s8.268 3.71 8.268 8.269v1.484L16.07 11.6l-1.327 1.33 4.668 4.656 4.633-4.634-1.329-1.329z"/></g><defs><clipPath id="bdclip0"><path transform="translate(.043 .5)" d="M0 0h24v24H0z"/></clipPath></defs></svg><svg fill="none" viewBox="0 0 12 6" id="ic_select" xmlns="http://www.w3.org/2000/svg"><path d="M6 5l5-4H1l5 4z" fill="#E2243C"/></svg><svg fill="none" viewBox="0 0 26 25" id="ic_star" xmlns="http://www.w3.org/2000/svg"><path d="M19.83 24.243a1.33 1.33 0 001.295-1.625l-1.61-7.085 5.455-4.783a1.328 1.328 0 00-.753-2.325L17 7.77l-2.853-6.678a1.329 1.329 0 00-2.444 0L8.85 7.77l-7.216.655a1.328 1.328 0 00-.755 2.325l5.454 4.782-1.608 7.085a1.328 1.328 0 001.977 1.435l6.223-3.719 6.223 3.721c.21.125.445.189.681.189zm-6.905-5.512c-.237 0-.471.064-.682.189L6.37 22.432l1.518-6.686a1.329 1.329 0 00-.42-1.295l-5.15-4.517 6.813-.618c.49-.045.912-.354 1.104-.806l2.69-6.301 2.693 6.302c.19.45.611.758 1.1.802l6.815.62-5.15 4.516c-.369.323-.53.819-.42 1.296l1.516 6.686-5.873-3.511a1.33 1.33 0 00-.681-.189zM17.055 7.9l.001.002-.001-.002zm-8.258-.003l-.002.002.002-.002z" fill="#000"/></svg><svg viewBox="0 0 16 14" id="ic_tg" xmlns="http://www.w3.org/2000/svg"><path d="M6.279 9.096l-.265 3.723c.379 0 .543-.163.74-.358l1.775-1.697 3.679 2.695c.674.376 1.15.178 1.332-.621l2.415-11.316c.214-.997-.36-1.388-1.018-1.143L.743 5.813c-.969.376-.954.916-.165 1.161l3.629 1.129 8.43-5.274c.396-.263.757-.118.46.145L6.279 9.096z"/></svg><svg fill="none" viewBox="0 0 24 20" id="ic_tgram" xmlns="http://www.w3.org/2000/svg"><path d="M9.438 12.92l-.38 5.351c.544 0 .78-.233 1.063-.514l2.552-2.44 5.289 3.874c.97.54 1.653.256 1.914-.893l3.472-16.265C23.655.599 22.83.037 21.885.389L1.481 8.2C.088 8.74.109 9.518 1.244 9.869l5.217 1.623L18.578 3.91c.57-.378 1.088-.169.662.209l-9.802 8.8z" fill="#fff"/></svg><svg viewBox="0 0 16 13" id="ic_tw" xmlns="http://www.w3.org/2000/svg"><path d="M16 1.543a6.872 6.872 0 01-1.645 1.696 9.368 9.368 0 01-.376 3.066 9.453 9.453 0 01-1.177 2.517 9.91 9.91 0 01-1.868 2.143c-.724.615-1.597 1.11-2.62 1.482a9.666 9.666 0 01-3.278.548A9.106 9.106 0 010 11.523c.237.027.5.04.792.04a6.42 6.42 0 004.07-1.4 3.214 3.214 0 01-1.908-.65 3.235 3.235 0 01-1.157-1.625c.223.034.43.051.62.051.29 0 .578-.037.862-.112a3.259 3.259 0 01-1.888-1.126A3.201 3.201 0 01.65 4.609v-.04c.46.257.954.395 1.482.416a3.275 3.275 0 01-1.066-1.168A3.195 3.195 0 01.67 2.254c0-.596.149-1.147.447-1.655a9.373 9.373 0 002.985 2.426A9.22 9.22 0 007.878 4.03a3.643 3.643 0 01-.081-.75c0-.908.318-1.68.954-2.316A3.169 3.169 0 0111.076 0c.948 0 1.746.345 2.396 1.036a6.43 6.43 0 002.081-.792 3.184 3.184 0 01-1.441 1.807A6.534 6.534 0 0016 1.543z"/></svg><svg viewBox="0 0 19 11" id="ic_vk" xmlns="http://www.w3.org/2000/svg"><path d="M17.57 8.059c-.393-.414-.84-.785-1.27-1.143-.154-.128-.313-.26-.466-.39-.438-.377-.454-.519-.107-.947.24-.295.495-.59.742-.876.224-.26.455-.527.677-.796l.045-.055c.424-.515.862-1.047 1.095-1.689.06-.17.124-.418-.021-.627-.145-.208-.427-.272-.627-.301a1.946 1.946 0 00-.287-.017l-2.774-.002h-.023c-.42 0-.702.174-.864.53a13.74 13.74 0 01-.519 1.05c-.385.688-.875 1.48-1.584 2.141l-.03.028c-.084.08-.179.169-.248.169a.133.133 0 01-.035-.006c-.147-.05-.246-.362-.241-.507v-.006L11.03 1.8l-.003-.03c-.07-.457-.226-.742-.817-.843a.278.278 0 00-.048-.004H7.278c-.47 0-.729.168-.972.419-.066.067-.202.206-.135.376.07.172.292.208.365.22.361.06.564.254.622.593.1.588.113 1.216.039 1.975a1.49 1.49 0 01-.129.514c-.015.032-.07.138-.127.138-.018 0-.07-.006-.165-.063-.224-.135-.387-.327-.578-.564A12.863 12.863 0 014.53 1.817a.986.986 0 00-.92-.592c-.46-.006-.878-.01-1.276-.01-.435 0-.839.004-1.232.012-.337.005-.57.093-.693.263s-.115.394.024.664C1.544 4.32 2.55 5.896 3.697 7.261c.804.956 1.61 1.618 2.536 2.082.977.49 2.071.729 3.345.729.145 0 .294-.003.445-.01.74-.031 1.015-.266 1.05-.9.016-.323.057-.662.238-.951.114-.183.22-.183.256-.183.067 0 .151.028.241.079.161.092.3.216.413.324l.317.31c.228.224.464.456.71.675.538.481 1.132.693 1.813.647h2.56a.755.755 0 00.602-.34c.16-.248.157-.564-.008-.847a4.587 4.587 0 00-.645-.817z"/></svg><svg viewBox="0 0 16 17" id="ic_wa" xmlns="http://www.w3.org/2000/svg"><path d="M9.719 9.385c.27-.34.451-.51.541-.51.09 0 .428.153 1.01.458.591.306.904.49.938.552.014.035.021.087.021.157 0 .229-.059.493-.177.791-.111.271-.358.5-.74.688-.381.18-.736.27-1.062.27-.396 0-1.056-.215-1.98-.645a5.945 5.945 0 01-1.77-1.23C6 9.41 5.486 8.768 4.958 7.99c-.5-.743-.746-1.417-.74-2.021v-.084c.022-.632.279-1.18.772-1.645a.788.788 0 01.541-.23c.042 0 .104.007.188.021.083.007.15.01.198.01.132 0 .222.025.27.074.056.041.112.135.167.28.056.14.17.445.344.918.174.472.26.732.26.78 0 .147-.121.348-.364.605-.236.25-.354.41-.354.48 0 .048.017.1.052.155.236.507.59.983 1.062 1.427.39.368.913.72 1.573 1.053.083.048.16.072.23.072.103 0 .29-.166.562-.5zm-1.573 5.01a6.33 6.33 0 002.531-.52 6.581 6.581 0 002.094-1.396 6.613 6.613 0 001.396-2.083c.347-.813.52-1.66.52-2.542a6.33 6.33 0 00-.52-2.531 6.582 6.582 0 00-1.396-2.094 6.581 6.581 0 00-2.094-1.396 6.329 6.329 0 00-2.531-.52c-.882 0-1.73.173-2.542.52-.805.348-1.5.813-2.083 1.396a6.582 6.582 0 00-1.396 2.094 6.329 6.329 0 00-.52 2.531c0 1.41.416 2.688 1.25 3.833l-.824 2.428 2.521-.803a6.406 6.406 0 003.594 1.084zM5.094.626A7.669 7.669 0 018.146 0c1.062 0 2.076.208 3.041.625a7.918 7.918 0 012.51 1.677 7.918 7.918 0 011.678 2.51c.417.966.625 1.98.625 3.042 0 1.063-.208 2.08-.625 3.052a7.947 7.947 0 01-1.677 2.5 7.916 7.916 0 01-2.51 1.677 7.594 7.594 0 01-3.042.625 7.735 7.735 0 01-3.802-.979L0 16.125l1.417-4.219A7.666 7.666 0 01.292 7.854c0-1.062.208-2.076.625-3.042a7.917 7.917 0 011.677-2.51 7.948 7.948 0 012.5-1.677z"/></svg><svg fill="none" viewBox="0 0 24 25" id="ic_whatsapp" xmlns="http://www.w3.org/2000/svg"><path d="M14.516 14.47c.389-.489.649-.733.778-.733.13 0 .614.22 1.453.658.848.44 1.297.704 1.347.794.02.05.03.125.03.225 0 .33-.084.708-.254 1.138-.16.389-.514.718-1.063.988-.55.26-1.058.39-1.528.39-.569 0-1.517-.31-2.845-.93a8.545 8.545 0 01-2.545-1.766c-.72-.729-1.458-1.652-2.216-2.77-.72-1.068-1.074-2.037-1.064-2.905v-.12c.03-.908.4-1.697 1.108-2.366.24-.22.5-.33.78-.33.059 0 .149.01.269.03.12.01.214.016.284.016.19 0 .32.035.39.104.08.06.16.195.239.405.08.2.245.639.494 1.317.25.68.374 1.054.374 1.124 0 .21-.174.499-.524.868-.339.36-.509.589-.509.689 0 .07.025.145.075.224.34.73.849 1.413 1.527 2.052.56.529 1.313 1.033 2.262 1.512.12.07.23.105.329.105.15 0 .42-.24.809-.719zm-2.261 7.203c1.267 0 2.48-.25 3.638-.749 1.168-.5 2.171-1.168 3.01-2.006a9.506 9.506 0 002.007-2.995c.499-1.168.748-2.386.748-3.654 0-1.268-.25-2.48-.748-3.639-.5-1.168-1.169-2.17-2.007-3.01-.838-.838-1.842-1.507-3.01-2.006a9.097 9.097 0 00-3.638-.749c-1.268 0-2.486.25-3.654.75A9.505 9.505 0 005.606 5.62C4.768 6.459 4.1 7.462 3.6 8.63a9.098 9.098 0 00-.75 3.638c0 2.027.6 3.863 1.798 5.51l-1.183 3.49 3.624-1.153c1.577 1.038 3.299 1.557 5.166 1.557zM7.867 1.877A11.024 11.024 0 0112.255.98c1.527 0 2.984.3 4.372.898 1.398.6 2.6 1.403 3.609 2.411 1.008 1.008 1.811 2.211 2.41 3.609.6 1.387.899 2.845.899 4.372 0 1.527-.3 2.99-.899 4.388-.599 1.387-1.402 2.585-2.41 3.593-1.009 1.009-2.212 1.812-3.609 2.411a10.919 10.919 0 01-4.372.898c-1.947 0-3.769-.469-5.466-1.407L.545 24.158l2.036-6.064C1.503 16.317.964 14.375.964 12.269c0-1.527.3-2.985.899-4.372.599-1.398 1.402-2.6 2.41-3.609C5.282 3.28 6.48 2.476 7.867 1.878z" fill="#fff"/></svg></svg>